<?xml version="1.0" encoding="UTF-8" ?>
<svg version="1.1" width="3200" height="3200" xmlns="http://www.w3.org/2000/svg" shape-rendering="crispEdges">
<rect x="1000" y="1000" width="100" height="100" fill="#000000" />
<rect x="900" y="1100" width="100" height="100" fill="#000000" />
<rect x="1000" y="1100" width="100" height="100" fill="#000000" />
<rect x="800" y="1200" width="100" height="100" fill="#000000" />
<rect x="900" y="1200" width="100" height="100" fill="#000000" />
<rect x="1000" y="1200" width="100" height="100" fill="#000000" />
<rect x="700" y="1300" width="100" height="100" fill="#000000" />
<rect x="800" y="1300" width="100" height="100" fill="#000000" />
<rect x="900" y="1300" width="100" height="100" fill="#000000" />
<rect x="1000" y="1300" width="100" height="100" fill="#000000" />
<rect x="600" y="1400" width="100" height="100" fill="#000000" />
<rect x="700" y="1400" width="100" height="100" fill="#000000" />
<rect x="800" y="1400" width="100" height="100" fill="#000000" />
<rect x="900" y="1400" width="100" height="100" fill="#000000" />
<rect x="1000" y="1400" width="100" height="100" fill="#000000" />
<rect x="1100" y="1400" width="100" height="100" fill="#000000" />
<rect x="1200" y="1400" width="100" height="100" fill="#000000" />
<rect x="1300" y="1400" width="100" height="100" fill="#000000" />
<rect x="1400" y="1400" width="100" height="100" fill="#000000" />
<rect x="1500" y="1400" width="100" height="100" fill="#000000" />
<rect x="1600" y="1400" width="100" height="100" fill="#000000" />
<rect x="1700" y="1400" width="100" height="100" fill="#000000" />
<rect x="1800" y="1400" width="100" height="100" fill="#000000" />
<rect x="1900" y="1400" width="100" height="100" fill="#000000" />
<rect x="2000" y="1400" width="100" height="100" fill="#000000" />
<rect x="2100" y="1400" width="100" height="100" fill="#000000" />
<rect x="2200" y="1400" width="100" height="100" fill="#000000" />
<rect x="2300" y="1400" width="100" height="100" fill="#000000" />
<rect x="2400" y="1400" width="100" height="100" fill="#000000" />
<rect x="2500" y="1400" width="100" height="100" fill="#000000" />
<rect x="2600" y="1400" width="100" height="100" fill="#000000" />
<rect x="500" y="1500" width="100" height="100" fill="#000000" />
<rect x="600" y="1500" width="100" height="100" fill="#000000" />
<rect x="700" y="1500" width="100" height="100" fill="#000000" />
<rect x="800" y="1500" width="100" height="100" fill="#000000" />
<rect x="900" y="1500" width="100" height="100" fill="#000000" />
<rect x="1000" y="1500" width="100" height="100" fill="#000000" />
<rect x="1100" y="1500" width="100" height="100" fill="#000000" />
<rect x="1200" y="1500" width="100" height="100" fill="#000000" />
<rect x="1300" y="1500" width="100" height="100" fill="#000000" />
<rect x="1400" y="1500" width="100" height="100" fill="#000000" />
<rect x="1500" y="1500" width="100" height="100" fill="#000000" />
<rect x="1600" y="1500" width="100" height="100" fill="#000000" />
<rect x="1700" y="1500" width="100" height="100" fill="#000000" />
<rect x="1800" y="1500" width="100" height="100" fill="#000000" />
<rect x="1900" y="1500" width="100" height="100" fill="#000000" />
<rect x="2000" y="1500" width="100" height="100" fill="#000000" />
<rect x="2100" y="1500" width="100" height="100" fill="#000000" />
<rect x="2200" y="1500" width="100" height="100" fill="#000000" />
<rect x="2300" y="1500" width="100" height="100" fill="#000000" />
<rect x="2400" y="1500" width="100" height="100" fill="#000000" />
<rect x="2500" y="1500" width="100" height="100" fill="#000000" />
<rect x="2600" y="1500" width="100" height="100" fill="#000000" />
<rect x="500" y="1600" width="100" height="100" fill="#000000" />
<rect x="600" y="1600" width="100" height="100" fill="#000000" />
<rect x="700" y="1600" width="100" height="100" fill="#000000" />
<rect x="800" y="1600" width="100" height="100" fill="#000000" />
<rect x="900" y="1600" width="100" height="100" fill="#000000" />
<rect x="1000" y="1600" width="100" height="100" fill="#000000" />
<rect x="1100" y="1600" width="100" height="100" fill="#000000" />
<rect x="1200" y="1600" width="100" height="100" fill="#000000" />
<rect x="1300" y="1600" width="100" height="100" fill="#000000" />
<rect x="1400" y="1600" width="100" height="100" fill="#000000" />
<rect x="1500" y="1600" width="100" height="100" fill="#000000" />
<rect x="1600" y="1600" width="100" height="100" fill="#000000" />
<rect x="1700" y="1600" width="100" height="100" fill="#000000" />
<rect x="1800" y="1600" width="100" height="100" fill="#000000" />
<rect x="1900" y="1600" width="100" height="100" fill="#000000" />
<rect x="2000" y="1600" width="100" height="100" fill="#000000" />
<rect x="2100" y="1600" width="100" height="100" fill="#000000" />
<rect x="2200" y="1600" width="100" height="100" fill="#000000" />
<rect x="2300" y="1600" width="100" height="100" fill="#000000" />
<rect x="2400" y="1600" width="100" height="100" fill="#000000" />
<rect x="2500" y="1600" width="100" height="100" fill="#000000" />
<rect x="2600" y="1600" width="100" height="100" fill="#000000" />
<rect x="600" y="1700" width="100" height="100" fill="#000000" />
<rect x="700" y="1700" width="100" height="100" fill="#000000" />
<rect x="800" y="1700" width="100" height="100" fill="#000000" />
<rect x="900" y="1700" width="100" height="100" fill="#000000" />
<rect x="1000" y="1700" width="100" height="100" fill="#000000" />
<rect x="1100" y="1700" width="100" height="100" fill="#000000" />
<rect x="1200" y="1700" width="100" height="100" fill="#000000" />
<rect x="1300" y="1700" width="100" height="100" fill="#000000" />
<rect x="1400" y="1700" width="100" height="100" fill="#000000" />
<rect x="1500" y="1700" width="100" height="100" fill="#000000" />
<rect x="1600" y="1700" width="100" height="100" fill="#000000" />
<rect x="1700" y="1700" width="100" height="100" fill="#000000" />
<rect x="1800" y="1700" width="100" height="100" fill="#000000" />
<rect x="1900" y="1700" width="100" height="100" fill="#000000" />
<rect x="2000" y="1700" width="100" height="100" fill="#000000" />
<rect x="2100" y="1700" width="100" height="100" fill="#000000" />
<rect x="2200" y="1700" width="100" height="100" fill="#000000" />
<rect x="2300" y="1700" width="100" height="100" fill="#000000" />
<rect x="2400" y="1700" width="100" height="100" fill="#000000" />
<rect x="2500" y="1700" width="100" height="100" fill="#000000" />
<rect x="2600" y="1700" width="100" height="100" fill="#000000" />
<rect x="700" y="1800" width="100" height="100" fill="#000000" />
<rect x="800" y="1800" width="100" height="100" fill="#000000" />
<rect x="900" y="1800" width="100" height="100" fill="#000000" />
<rect x="1000" y="1800" width="100" height="100" fill="#000000" />
<rect x="800" y="1900" width="100" height="100" fill="#000000" />
<rect x="900" y="1900" width="100" height="100" fill="#000000" />
<rect x="1000" y="1900" width="100" height="100" fill="#000000" />
<rect x="900" y="2000" width="100" height="100" fill="#000000" />
<rect x="1000" y="2000" width="100" height="100" fill="#000000" />
<rect x="1000" y="2100" width="100" height="100" fill="#000000" />
</svg>