%TF.GenerationSoftware,KiCad,Pcbnew,(6.0.10)*%
%TF.CreationDate,2023-01-08T01:11:37-07:00*%
%TF.ProjectId,decimator_pcb,64656369-6d61-4746-9f72-5f7063622e6b,rev?*%
%TF.SameCoordinates,Original*%
%TF.FileFunction,Copper,L1,Top*%
%TF.FilePolarity,Positive*%
%FSLAX46Y46*%
G04 Gerber Fmt 4.6, Leading zero omitted, Abs format (unit mm)*
G04 Created by KiCad (PCBNEW (6.0.10)) date 2023-01-08 01:11:37*
%MOMM*%
%LPD*%
G01*
G04 APERTURE LIST*
G04 Aperture macros list*
%AMRoundRect*
0 Rectangle with rounded corners*
0 $1 Rounding radius*
0 $2 $3 $4 $5 $6 $7 $8 $9 X,Y pos of 4 corners*
0 Add a 4 corners polygon primitive as box body*
4,1,4,$2,$3,$4,$5,$6,$7,$8,$9,$2,$3,0*
0 Add four circle primitives for the rounded corners*
1,1,$1+$1,$2,$3*
1,1,$1+$1,$4,$5*
1,1,$1+$1,$6,$7*
1,1,$1+$1,$8,$9*
0 Add four rect primitives between the rounded corners*
20,1,$1+$1,$2,$3,$4,$5,0*
20,1,$1+$1,$4,$5,$6,$7,0*
20,1,$1+$1,$6,$7,$8,$9,0*
20,1,$1+$1,$8,$9,$2,$3,0*%
%AMOutline4P*
0 Free polygon, 4 corners , with rotation*
0 The origin of the aperture is its center*
0 number of corners: always 4*
0 $1 to $8 corner X, Y*
0 $9 Rotation angle, in degrees counterclockwise*
0 create outline with 4 corners*
4,1,4,$1,$2,$3,$4,$5,$6,$7,$8,$1,$2,$9*%
G04 Aperture macros list end*
%ADD10C,0.300000*%
%TA.AperFunction,NonConductor*%
%ADD11C,0.300000*%
%TD*%
%TA.AperFunction,SMDPad,CuDef*%
%ADD12Outline4P,-0.550000X-0.825000X0.550000X-0.825000X0.550000X0.825000X-0.550000X0.825000X180.000000*%
%TD*%
%TA.AperFunction,SMDPad,CuDef*%
%ADD13RoundRect,0.075000X-0.725000X-0.075000X0.725000X-0.075000X0.725000X0.075000X-0.725000X0.075000X0*%
%TD*%
%TA.AperFunction,SMDPad,CuDef*%
%ADD14RoundRect,0.075000X-0.075000X-0.725000X0.075000X-0.725000X0.075000X0.725000X-0.075000X0.725000X0*%
%TD*%
%TA.AperFunction,ComponentPad*%
%ADD15C,1.524000*%
%TD*%
G04 APERTURE END LIST*
D10*
D11*
X147352857Y-75378571D02*
X147352857Y-73878571D01*
X148067142Y-75378571D02*
X148067142Y-73878571D01*
X148924285Y-75378571D01*
X148924285Y-73878571D01*
X149424285Y-73878571D02*
X150281428Y-73878571D01*
X149852857Y-75378571D02*
X149852857Y-73878571D01*
X151567142Y-73950000D02*
X151424285Y-73878571D01*
X151210000Y-73878571D01*
X150995714Y-73950000D01*
X150852857Y-74092857D01*
X150781428Y-74235714D01*
X150710000Y-74521428D01*
X150710000Y-74735714D01*
X150781428Y-75021428D01*
X150852857Y-75164285D01*
X150995714Y-75307142D01*
X151210000Y-75378571D01*
X151352857Y-75378571D01*
X151567142Y-75307142D01*
X151638571Y-75235714D01*
X151638571Y-74735714D01*
X151352857Y-74735714D01*
%TO.C,G\u002A\u002A\u002A*%
G36*
X82475766Y-126570977D02*
G01*
X82502225Y-126583600D01*
X82532660Y-126607334D01*
X82551803Y-126636354D01*
X82559745Y-126673449D01*
X82556578Y-126721405D01*
X82542393Y-126783009D01*
X82517283Y-126861049D01*
X82511855Y-126876372D01*
X82486529Y-126957373D01*
X82469322Y-127034420D01*
X82460978Y-127102787D01*
X82462243Y-127157742D01*
X82465133Y-127173095D01*
X82480051Y-127198759D01*
X82504409Y-127218465D01*
X82547364Y-127228580D01*
X82594489Y-127218162D01*
X82643115Y-127188090D01*
X82668717Y-127164345D01*
X82683535Y-127148299D01*
X82695631Y-127132546D01*
X82706167Y-127113872D01*
X82716307Y-127089063D01*
X82727214Y-127054903D01*
X82740052Y-127008178D01*
X82755984Y-126945672D01*
X82773645Y-126874425D01*
X82791888Y-126802388D01*
X82809414Y-126736670D01*
X82825215Y-126680790D01*
X82838280Y-126638270D01*
X82847600Y-126612631D01*
X82850146Y-126607755D01*
X82873385Y-126589691D01*
X82903120Y-126584150D01*
X82930269Y-126591458D01*
X82942893Y-126604437D01*
X82943234Y-126620821D01*
X82938257Y-126655665D01*
X82928751Y-126705795D01*
X82915503Y-126768039D01*
X82899301Y-126839222D01*
X82880933Y-126916173D01*
X82861189Y-126995718D01*
X82840855Y-127074684D01*
X82820721Y-127149898D01*
X82801573Y-127218186D01*
X82784201Y-127276376D01*
X82769392Y-127321294D01*
X82757935Y-127349768D01*
X82757598Y-127350440D01*
X82709208Y-127425897D01*
X82648685Y-127488171D01*
X82579461Y-127534910D01*
X82504967Y-127563761D01*
X82433714Y-127572474D01*
X82392825Y-127570564D01*
X82358235Y-127566368D01*
X82341871Y-127562297D01*
X82304559Y-127536566D01*
X82275297Y-127496936D01*
X82259693Y-127451852D01*
X82258496Y-127436718D01*
X82261200Y-127402306D01*
X82267868Y-127374866D01*
X82269497Y-127371328D01*
X82292344Y-127349185D01*
X82327066Y-127335679D01*
X82363745Y-127333950D01*
X82376925Y-127337328D01*
X82398642Y-127355365D01*
X82406080Y-127383100D01*
X82401109Y-127414597D01*
X82385600Y-127443922D01*
X82361424Y-127465139D01*
X82334358Y-127472391D01*
X82318926Y-127473561D01*
X82318317Y-127479372D01*
X82333511Y-127494221D01*
X82340605Y-127500488D01*
X82379278Y-127521209D01*
X82427872Y-127528750D01*
X82477657Y-127522477D01*
X82503501Y-127512331D01*
X82536335Y-127488921D01*
X82573096Y-127453449D01*
X82606511Y-127413340D01*
X82620001Y-127393363D01*
X82630718Y-127372279D01*
X82645127Y-127339647D01*
X82660505Y-127302240D01*
X82674131Y-127266831D01*
X82683283Y-127240194D01*
X82685575Y-127230157D01*
X82676733Y-127231806D01*
X82654304Y-127241695D01*
X82639972Y-127248910D01*
X82587221Y-127266907D01*
X82528155Y-127272259D01*
X82471698Y-127264901D01*
X82435353Y-127250380D01*
X82394103Y-127219537D01*
X82365909Y-127181513D01*
X82350616Y-127134261D01*
X82348070Y-127075734D01*
X82358118Y-127003887D01*
X82380603Y-126916673D01*
X82404602Y-126842655D01*
X82430191Y-126766160D01*
X82447553Y-126707999D01*
X82457088Y-126665749D01*
X82459195Y-126636987D01*
X82454275Y-126619291D01*
X82442916Y-126610310D01*
X82411601Y-126609575D01*
X82377373Y-126627525D01*
X82343147Y-126661136D01*
X82311840Y-126707382D01*
X82286365Y-126763240D01*
X82281401Y-126777875D01*
X82266083Y-126814425D01*
X82250092Y-126828889D01*
X82233151Y-126821806D01*
X82227696Y-126801799D01*
X82233353Y-126768031D01*
X82248620Y-126725345D01*
X82271995Y-126678585D01*
X82283502Y-126659473D01*
X82325205Y-126609108D01*
X82373249Y-126576843D01*
X82424485Y-126563768D01*
X82475766Y-126570977D01*
G37*
G36*
X81411157Y-126571597D02*
G01*
X81447295Y-126588608D01*
X81449850Y-126590734D01*
X81463906Y-126598829D01*
X81481919Y-126596966D01*
X81511272Y-126584269D01*
X81513499Y-126583171D01*
X81561794Y-126567789D01*
X81606959Y-126568721D01*
X81643560Y-126585268D01*
X81658783Y-126601838D01*
X81669197Y-126632788D01*
X81663497Y-126661608D01*
X81645720Y-126682981D01*
X81619904Y-126691592D01*
X81595398Y-126685310D01*
X81576499Y-126669786D01*
X81575438Y-126649138D01*
X81584555Y-126628376D01*
X81590069Y-126612104D01*
X81578649Y-126606897D01*
X81569655Y-126606637D01*
X81543006Y-126614581D01*
X81519125Y-126632181D01*
X81503874Y-126656904D01*
X81488614Y-126695459D01*
X81474925Y-126741427D01*
X81464387Y-126788391D01*
X81458580Y-126829934D01*
X81459083Y-126859638D01*
X81461380Y-126866720D01*
X81481466Y-126883952D01*
X81510978Y-126886470D01*
X81544384Y-126876337D01*
X81576149Y-126855615D01*
X81600738Y-126826367D01*
X81607509Y-126812264D01*
X81621486Y-126793483D01*
X81638732Y-126788465D01*
X81651606Y-126796904D01*
X81653465Y-126814095D01*
X81635654Y-126855371D01*
X81601660Y-126889076D01*
X81557147Y-126912926D01*
X81507780Y-126924635D01*
X81459224Y-126921920D01*
X81423343Y-126906910D01*
X81404034Y-126896327D01*
X81386889Y-126895766D01*
X81362447Y-126905730D01*
X81352647Y-126910657D01*
X81322059Y-126925086D01*
X81300338Y-126930137D01*
X81276774Y-126927475D01*
X81263850Y-126924483D01*
X81228865Y-126907485D01*
X81207836Y-126880371D01*
X81203031Y-126848848D01*
X81216717Y-126818622D01*
X81220258Y-126814799D01*
X81245150Y-126801550D01*
X81269030Y-126805580D01*
X81286041Y-126822220D01*
X81290326Y-126846798D01*
X81283340Y-126865094D01*
X81275326Y-126881944D01*
X81283758Y-126887303D01*
X81292591Y-126887611D01*
X81320508Y-126884385D01*
X81342369Y-126872600D01*
X81360326Y-126849095D01*
X81376531Y-126810709D01*
X81393138Y-126754281D01*
X81399040Y-126731290D01*
X81410347Y-126676256D01*
X81411335Y-126638968D01*
X81401354Y-126616878D01*
X81379757Y-126607441D01*
X81367287Y-126606637D01*
X81319767Y-126617085D01*
X81281306Y-126647585D01*
X81263497Y-126674753D01*
X81245964Y-126698345D01*
X81228457Y-126707129D01*
X81216108Y-126699985D01*
X81213274Y-126685701D01*
X81222210Y-126659119D01*
X81245117Y-126628085D01*
X81276151Y-126598751D01*
X81309464Y-126577269D01*
X81320645Y-126572722D01*
X81365629Y-126565840D01*
X81411157Y-126571597D01*
G37*
G36*
X83000265Y-126291947D02*
G01*
X82207225Y-126291947D01*
X81847927Y-127033691D01*
X81779937Y-127173994D01*
X81721003Y-127295415D01*
X81670407Y-127399317D01*
X81627433Y-127487061D01*
X81591366Y-127560009D01*
X81561489Y-127619523D01*
X81537086Y-127666965D01*
X81517440Y-127703697D01*
X81501837Y-127731080D01*
X81489559Y-127750476D01*
X81479891Y-127763248D01*
X81472116Y-127770756D01*
X81465519Y-127774364D01*
X81459383Y-127775432D01*
X81457872Y-127775461D01*
X81433485Y-127770148D01*
X81416820Y-127750286D01*
X81411505Y-127738960D01*
X81401611Y-127716587D01*
X81384263Y-127678168D01*
X81360931Y-127626897D01*
X81333086Y-127565970D01*
X81302198Y-127498582D01*
X81269736Y-127427928D01*
X81237173Y-127357203D01*
X81205976Y-127289603D01*
X81177618Y-127228322D01*
X81153568Y-127176556D01*
X81135295Y-127137500D01*
X81124272Y-127114348D01*
X81122153Y-127110128D01*
X81114054Y-127098662D01*
X81103670Y-127098353D01*
X81085269Y-127110637D01*
X81069649Y-127123287D01*
X81034070Y-127148797D01*
X81011174Y-127156067D01*
X81000598Y-127145163D01*
X80999735Y-127136229D01*
X81008174Y-127121956D01*
X81030426Y-127098631D01*
X81061891Y-127070095D01*
X81097971Y-127040192D01*
X81134065Y-127012762D01*
X81165576Y-126991649D01*
X81184572Y-126981819D01*
X81191476Y-126980376D01*
X81198636Y-126982847D01*
X81207118Y-126991224D01*
X81217988Y-127007499D01*
X81232311Y-127033661D01*
X81251154Y-127071704D01*
X81275583Y-127123617D01*
X81306664Y-127191392D01*
X81345462Y-127277021D01*
X81360812Y-127311022D01*
X81394181Y-127384607D01*
X81424532Y-127450830D01*
X81450658Y-127507117D01*
X81471354Y-127550892D01*
X81485414Y-127579581D01*
X81491631Y-127590610D01*
X81491784Y-127590635D01*
X81497126Y-127580224D01*
X81511461Y-127551250D01*
X81533977Y-127505377D01*
X81563863Y-127444268D01*
X81600308Y-127369587D01*
X81642499Y-127282998D01*
X81689626Y-127186165D01*
X81740876Y-127080751D01*
X81795439Y-126968420D01*
X81824414Y-126908728D01*
X82153730Y-126230133D01*
X82576998Y-126227188D01*
X83000265Y-126224244D01*
X83000265Y-126291947D01*
G37*
G36*
X82475766Y-113570977D02*
G01*
X82502225Y-113583600D01*
X82532660Y-113607334D01*
X82551803Y-113636354D01*
X82559745Y-113673449D01*
X82556578Y-113721405D01*
X82542393Y-113783009D01*
X82517283Y-113861049D01*
X82511855Y-113876372D01*
X82486529Y-113957373D01*
X82469322Y-114034420D01*
X82460978Y-114102787D01*
X82462243Y-114157742D01*
X82465133Y-114173095D01*
X82480051Y-114198759D01*
X82504409Y-114218465D01*
X82547364Y-114228580D01*
X82594489Y-114218162D01*
X82643115Y-114188090D01*
X82668717Y-114164345D01*
X82683535Y-114148299D01*
X82695631Y-114132546D01*
X82706167Y-114113872D01*
X82716307Y-114089063D01*
X82727214Y-114054903D01*
X82740052Y-114008178D01*
X82755984Y-113945672D01*
X82773645Y-113874425D01*
X82791888Y-113802388D01*
X82809414Y-113736670D01*
X82825215Y-113680790D01*
X82838280Y-113638270D01*
X82847600Y-113612631D01*
X82850146Y-113607755D01*
X82873385Y-113589691D01*
X82903120Y-113584150D01*
X82930269Y-113591458D01*
X82942893Y-113604437D01*
X82943234Y-113620821D01*
X82938257Y-113655665D01*
X82928751Y-113705795D01*
X82915503Y-113768039D01*
X82899301Y-113839222D01*
X82880933Y-113916173D01*
X82861189Y-113995718D01*
X82840855Y-114074684D01*
X82820721Y-114149898D01*
X82801573Y-114218186D01*
X82784201Y-114276376D01*
X82769392Y-114321294D01*
X82757935Y-114349768D01*
X82757598Y-114350440D01*
X82709208Y-114425897D01*
X82648685Y-114488171D01*
X82579461Y-114534910D01*
X82504967Y-114563761D01*
X82433714Y-114572474D01*
X82392825Y-114570564D01*
X82358235Y-114566368D01*
X82341871Y-114562297D01*
X82304559Y-114536566D01*
X82275297Y-114496936D01*
X82259693Y-114451852D01*
X82258496Y-114436718D01*
X82261200Y-114402306D01*
X82267868Y-114374866D01*
X82269497Y-114371328D01*
X82292344Y-114349185D01*
X82327066Y-114335679D01*
X82363745Y-114333950D01*
X82376925Y-114337328D01*
X82398642Y-114355365D01*
X82406080Y-114383100D01*
X82401109Y-114414597D01*
X82385600Y-114443922D01*
X82361424Y-114465139D01*
X82334358Y-114472391D01*
X82318926Y-114473561D01*
X82318317Y-114479372D01*
X82333511Y-114494221D01*
X82340605Y-114500488D01*
X82379278Y-114521209D01*
X82427872Y-114528750D01*
X82477657Y-114522477D01*
X82503501Y-114512331D01*
X82536335Y-114488921D01*
X82573096Y-114453449D01*
X82606511Y-114413340D01*
X82620001Y-114393363D01*
X82630718Y-114372279D01*
X82645127Y-114339647D01*
X82660505Y-114302240D01*
X82674131Y-114266831D01*
X82683283Y-114240194D01*
X82685575Y-114230157D01*
X82676733Y-114231806D01*
X82654304Y-114241695D01*
X82639972Y-114248910D01*
X82587221Y-114266907D01*
X82528155Y-114272259D01*
X82471698Y-114264901D01*
X82435353Y-114250380D01*
X82394103Y-114219537D01*
X82365909Y-114181513D01*
X82350616Y-114134261D01*
X82348070Y-114075734D01*
X82358118Y-114003887D01*
X82380603Y-113916673D01*
X82404602Y-113842655D01*
X82430191Y-113766160D01*
X82447553Y-113707999D01*
X82457088Y-113665749D01*
X82459195Y-113636987D01*
X82454275Y-113619291D01*
X82442916Y-113610310D01*
X82411601Y-113609575D01*
X82377373Y-113627525D01*
X82343147Y-113661136D01*
X82311840Y-113707382D01*
X82286365Y-113763240D01*
X82281401Y-113777875D01*
X82266083Y-113814425D01*
X82250092Y-113828889D01*
X82233151Y-113821806D01*
X82227696Y-113801799D01*
X82233353Y-113768031D01*
X82248620Y-113725345D01*
X82271995Y-113678585D01*
X82283502Y-113659473D01*
X82325205Y-113609108D01*
X82373249Y-113576843D01*
X82424485Y-113563768D01*
X82475766Y-113570977D01*
G37*
G36*
X81411157Y-113571597D02*
G01*
X81447295Y-113588608D01*
X81449850Y-113590734D01*
X81463906Y-113598829D01*
X81481919Y-113596966D01*
X81511272Y-113584269D01*
X81513499Y-113583171D01*
X81561794Y-113567789D01*
X81606959Y-113568721D01*
X81643560Y-113585268D01*
X81658783Y-113601838D01*
X81669197Y-113632788D01*
X81663497Y-113661608D01*
X81645720Y-113682981D01*
X81619904Y-113691592D01*
X81595398Y-113685310D01*
X81576499Y-113669786D01*
X81575438Y-113649138D01*
X81584555Y-113628376D01*
X81590069Y-113612104D01*
X81578649Y-113606897D01*
X81569655Y-113606637D01*
X81543006Y-113614581D01*
X81519125Y-113632181D01*
X81503874Y-113656904D01*
X81488614Y-113695459D01*
X81474925Y-113741427D01*
X81464387Y-113788391D01*
X81458580Y-113829934D01*
X81459083Y-113859638D01*
X81461380Y-113866720D01*
X81481466Y-113883952D01*
X81510978Y-113886470D01*
X81544384Y-113876337D01*
X81576149Y-113855615D01*
X81600738Y-113826367D01*
X81607509Y-113812264D01*
X81621486Y-113793483D01*
X81638732Y-113788465D01*
X81651606Y-113796904D01*
X81653465Y-113814095D01*
X81635654Y-113855371D01*
X81601660Y-113889076D01*
X81557147Y-113912926D01*
X81507780Y-113924635D01*
X81459224Y-113921920D01*
X81423343Y-113906910D01*
X81404034Y-113896327D01*
X81386889Y-113895766D01*
X81362447Y-113905730D01*
X81352647Y-113910657D01*
X81322059Y-113925086D01*
X81300338Y-113930137D01*
X81276774Y-113927475D01*
X81263850Y-113924483D01*
X81228865Y-113907485D01*
X81207836Y-113880371D01*
X81203031Y-113848848D01*
X81216717Y-113818622D01*
X81220258Y-113814799D01*
X81245150Y-113801550D01*
X81269030Y-113805580D01*
X81286041Y-113822220D01*
X81290326Y-113846798D01*
X81283340Y-113865094D01*
X81275326Y-113881944D01*
X81283758Y-113887303D01*
X81292591Y-113887611D01*
X81320508Y-113884385D01*
X81342369Y-113872600D01*
X81360326Y-113849095D01*
X81376531Y-113810709D01*
X81393138Y-113754281D01*
X81399040Y-113731290D01*
X81410347Y-113676256D01*
X81411335Y-113638968D01*
X81401354Y-113616878D01*
X81379757Y-113607441D01*
X81367287Y-113606637D01*
X81319767Y-113617085D01*
X81281306Y-113647585D01*
X81263497Y-113674753D01*
X81245964Y-113698345D01*
X81228457Y-113707129D01*
X81216108Y-113699985D01*
X81213274Y-113685701D01*
X81222210Y-113659119D01*
X81245117Y-113628085D01*
X81276151Y-113598751D01*
X81309464Y-113577269D01*
X81320645Y-113572722D01*
X81365629Y-113565840D01*
X81411157Y-113571597D01*
G37*
G36*
X83000265Y-113291947D02*
G01*
X82207225Y-113291947D01*
X81847927Y-114033691D01*
X81779937Y-114173994D01*
X81721003Y-114295415D01*
X81670407Y-114399317D01*
X81627433Y-114487061D01*
X81591366Y-114560009D01*
X81561489Y-114619523D01*
X81537086Y-114666965D01*
X81517440Y-114703697D01*
X81501837Y-114731080D01*
X81489559Y-114750476D01*
X81479891Y-114763248D01*
X81472116Y-114770756D01*
X81465519Y-114774364D01*
X81459383Y-114775432D01*
X81457872Y-114775461D01*
X81433485Y-114770148D01*
X81416820Y-114750286D01*
X81411505Y-114738960D01*
X81401611Y-114716587D01*
X81384263Y-114678168D01*
X81360931Y-114626897D01*
X81333086Y-114565970D01*
X81302198Y-114498582D01*
X81269736Y-114427928D01*
X81237173Y-114357203D01*
X81205976Y-114289603D01*
X81177618Y-114228322D01*
X81153568Y-114176556D01*
X81135295Y-114137500D01*
X81124272Y-114114348D01*
X81122153Y-114110128D01*
X81114054Y-114098662D01*
X81103670Y-114098353D01*
X81085269Y-114110637D01*
X81069649Y-114123287D01*
X81034070Y-114148797D01*
X81011174Y-114156067D01*
X81000598Y-114145163D01*
X80999735Y-114136229D01*
X81008174Y-114121956D01*
X81030426Y-114098631D01*
X81061891Y-114070095D01*
X81097971Y-114040192D01*
X81134065Y-114012762D01*
X81165576Y-113991649D01*
X81184572Y-113981819D01*
X81191476Y-113980376D01*
X81198636Y-113982847D01*
X81207118Y-113991224D01*
X81217988Y-114007499D01*
X81232311Y-114033661D01*
X81251154Y-114071704D01*
X81275583Y-114123617D01*
X81306664Y-114191392D01*
X81345462Y-114277021D01*
X81360812Y-114311022D01*
X81394181Y-114384607D01*
X81424532Y-114450830D01*
X81450658Y-114507117D01*
X81471354Y-114550892D01*
X81485414Y-114579581D01*
X81491631Y-114590610D01*
X81491784Y-114590635D01*
X81497126Y-114580224D01*
X81511461Y-114551250D01*
X81533977Y-114505377D01*
X81563863Y-114444268D01*
X81600308Y-114369587D01*
X81642499Y-114282998D01*
X81689626Y-114186165D01*
X81740876Y-114080751D01*
X81795439Y-113968420D01*
X81824414Y-113908728D01*
X82153730Y-113230133D01*
X82576998Y-113227188D01*
X83000265Y-113224244D01*
X83000265Y-113291947D01*
G37*
%TD*%
D12*
%TO.P,REF\u002A\u002A,1*%
%TO.N,N/C*%
X121800000Y-124300000D03*
X126200000Y-115700000D03*
X121800000Y-115700000D03*
X126200000Y-124300000D03*
%TD*%
%TO.P,REF\u002A\u002A,1*%
%TO.N,N/C*%
X114800000Y-117300000D03*
X119200000Y-108700000D03*
X114800000Y-108700000D03*
X119200000Y-117300000D03*
%TD*%
%TO.P,REF\u002A\u002A,1*%
%TO.N,N/C*%
X128800000Y-117300000D03*
X133200000Y-108700000D03*
X128800000Y-108700000D03*
X133200000Y-117300000D03*
%TD*%
%TO.P,REF\u002A\u002A,1*%
%TO.N,N/C*%
X121800000Y-110300000D03*
X126200000Y-101700000D03*
X121800000Y-101700000D03*
X126200000Y-110300000D03*
%TD*%
%TO.P,REF\u002A\u002A,1*%
%TO.N,N/C*%
X166800000Y-137300000D03*
X171200000Y-128700000D03*
X166800000Y-128700000D03*
X171200000Y-137300000D03*
%TD*%
%TO.P,REF\u002A\u002A,1*%
%TO.N,N/C*%
X149800000Y-137300000D03*
X154200000Y-128700000D03*
X149800000Y-128700000D03*
X154200000Y-137300000D03*
%TD*%
%TO.P,REF\u002A\u002A,1*%
%TO.N,N/C*%
X133800000Y-137300000D03*
X138200000Y-128700000D03*
X133800000Y-128700000D03*
X138200000Y-137300000D03*
%TD*%
%TO.P,REF\u002A\u002A,1*%
%TO.N,N/C*%
X105100000Y-110960000D03*
X109500000Y-102360000D03*
X105100000Y-102360000D03*
X109500000Y-110960000D03*
%TD*%
%TO.P,REF\u002A\u002A,1*%
%TO.N,N/C*%
X105100000Y-124300000D03*
X109500000Y-115700000D03*
X105100000Y-115700000D03*
X109500000Y-124300000D03*
%TD*%
%TO.P,REF\u002A\u002A,1*%
%TO.N,N/C*%
X79800000Y-137300000D03*
X84200000Y-128700000D03*
X79800000Y-128700000D03*
X84200000Y-137300000D03*
%TD*%
%TO.P,REF\u002A\u002A,1*%
%TO.N,N/C*%
X116800000Y-137300000D03*
X121200000Y-128700000D03*
X116800000Y-128700000D03*
X121200000Y-137300000D03*
%TD*%
%TO.P,REF\u002A\u002A,1*%
%TO.N,N/C*%
X98800000Y-137300000D03*
X103200000Y-128700000D03*
X98800000Y-128700000D03*
X103200000Y-137300000D03*
%TD*%
%TO.P,REF\u002A\u002A,1*%
%TO.N,N/C*%
X96800000Y-124300000D03*
X101200000Y-115700000D03*
X96800000Y-115700000D03*
X101200000Y-124300000D03*
%TD*%
%TO.P,REF\u002A\u002A,1*%
%TO.N,N/C*%
X79800000Y-124300000D03*
X84200000Y-115700000D03*
X79800000Y-115700000D03*
X84200000Y-124300000D03*
%TD*%
%TO.P,REF\u002A\u002A,1*%
%TO.N,N/C*%
X88380000Y-124300000D03*
X92780000Y-115700000D03*
X88380000Y-115700000D03*
X92780000Y-124300000D03*
%TD*%
%TO.P,REF\u002A\u002A,1*%
%TO.N,N/C*%
X96800000Y-110960000D03*
X101200000Y-102360000D03*
X96800000Y-102360000D03*
X101200000Y-110960000D03*
%TD*%
%TO.P,REF\u002A\u002A,1*%
%TO.N,N/C*%
X88380000Y-110960000D03*
X92780000Y-102360000D03*
X88380000Y-102360000D03*
X92780000Y-110960000D03*
%TD*%
%TO.P,REF\u002A\u002A,1*%
%TO.N,N/C*%
X79800000Y-110960000D03*
X84200000Y-102360000D03*
X79800000Y-102360000D03*
X84200000Y-110960000D03*
%TD*%
%TO.P,REF\u002A\u002A,1*%
%TO.N,N/C*%
X194800000Y-71700000D03*
X194800000Y-80300000D03*
X199200000Y-71700000D03*
X199200000Y-80300000D03*
%TD*%
%TO.P,REF\u002A\u002A,1*%
%TO.N,N/C*%
X204960000Y-71700000D03*
X204960000Y-80300000D03*
X209360000Y-71700000D03*
X209360000Y-80300000D03*
%TD*%
D13*
%TO.P,REF\u002A\u002A,1*%
%TO.N,N/C*%
X87325000Y-71000000D03*
%TO.P,REF\u002A\u002A,2*%
X87325000Y-71500000D03*
%TO.P,REF\u002A\u002A,3*%
X87325000Y-72000000D03*
%TO.P,REF\u002A\u002A,4*%
X87325000Y-72500000D03*
%TO.P,REF\u002A\u002A,5*%
X87325000Y-73000000D03*
%TO.P,REF\u002A\u002A,6*%
X87325000Y-73500000D03*
%TO.P,REF\u002A\u002A,7*%
X87325000Y-74000000D03*
%TO.P,REF\u002A\u002A,8*%
X87325000Y-74500000D03*
%TO.P,REF\u002A\u002A,9*%
X87325000Y-75000000D03*
%TO.P,REF\u002A\u002A,10*%
X87325000Y-75500000D03*
%TO.P,REF\u002A\u002A,11*%
X87325000Y-76000000D03*
%TO.P,REF\u002A\u002A,12*%
X87325000Y-76500000D03*
%TO.P,REF\u002A\u002A,13*%
X87325000Y-77000000D03*
%TO.P,REF\u002A\u002A,14*%
X87325000Y-77500000D03*
%TO.P,REF\u002A\u002A,15*%
X87325000Y-78000000D03*
%TO.P,REF\u002A\u002A,16*%
X87325000Y-78500000D03*
%TO.P,REF\u002A\u002A,17*%
X87325000Y-79000000D03*
%TO.P,REF\u002A\u002A,18*%
X87325000Y-79500000D03*
%TO.P,REF\u002A\u002A,19*%
X87325000Y-80000000D03*
%TO.P,REF\u002A\u002A,20*%
X87325000Y-80500000D03*
%TO.P,REF\u002A\u002A,21*%
X87325000Y-81000000D03*
%TO.P,REF\u002A\u002A,22*%
X87325000Y-81500000D03*
%TO.P,REF\u002A\u002A,23*%
X87325000Y-82000000D03*
%TO.P,REF\u002A\u002A,24*%
X87325000Y-82500000D03*
%TO.P,REF\u002A\u002A,25*%
X87325000Y-83000000D03*
D14*
%TO.P,REF\u002A\u002A,26*%
X89000000Y-84675000D03*
%TO.P,REF\u002A\u002A,27*%
X89500000Y-84675000D03*
%TO.P,REF\u002A\u002A,28*%
X90000000Y-84675000D03*
%TO.P,REF\u002A\u002A,29*%
X90500000Y-84675000D03*
%TO.P,REF\u002A\u002A,30*%
X91000000Y-84675000D03*
%TO.P,REF\u002A\u002A,31*%
X91500000Y-84675000D03*
%TO.P,REF\u002A\u002A,32*%
X92000000Y-84675000D03*
%TO.P,REF\u002A\u002A,33*%
X92500000Y-84675000D03*
%TO.P,REF\u002A\u002A,34*%
X93000000Y-84675000D03*
%TO.P,REF\u002A\u002A,35*%
X93500000Y-84675000D03*
%TO.P,REF\u002A\u002A,36*%
X94000000Y-84675000D03*
%TO.P,REF\u002A\u002A,37*%
X94500000Y-84675000D03*
%TO.P,REF\u002A\u002A,38*%
X95000000Y-84675000D03*
%TO.P,REF\u002A\u002A,39*%
X95500000Y-84675000D03*
%TO.P,REF\u002A\u002A,40*%
X96000000Y-84675000D03*
%TO.P,REF\u002A\u002A,41*%
X96500000Y-84675000D03*
%TO.P,REF\u002A\u002A,42*%
X97000000Y-84675000D03*
%TO.P,REF\u002A\u002A,43*%
X97500000Y-84675000D03*
%TO.P,REF\u002A\u002A,44*%
X98000000Y-84675000D03*
%TO.P,REF\u002A\u002A,45*%
X98500000Y-84675000D03*
%TO.P,REF\u002A\u002A,46*%
X99000000Y-84675000D03*
%TO.P,REF\u002A\u002A,47*%
X99500000Y-84675000D03*
%TO.P,REF\u002A\u002A,48*%
X100000000Y-84675000D03*
%TO.P,REF\u002A\u002A,49*%
X100500000Y-84675000D03*
%TO.P,REF\u002A\u002A,50*%
X101000000Y-84675000D03*
D13*
%TO.P,REF\u002A\u002A,51*%
X102675000Y-83000000D03*
%TO.P,REF\u002A\u002A,52*%
X102675000Y-82500000D03*
%TO.P,REF\u002A\u002A,53*%
X102675000Y-82000000D03*
%TO.P,REF\u002A\u002A,54*%
X102675000Y-81500000D03*
%TO.P,REF\u002A\u002A,55*%
X102675000Y-81000000D03*
%TO.P,REF\u002A\u002A,56*%
X102675000Y-80500000D03*
%TO.P,REF\u002A\u002A,57*%
X102675000Y-80000000D03*
%TO.P,REF\u002A\u002A,58*%
X102675000Y-79500000D03*
%TO.P,REF\u002A\u002A,59*%
X102675000Y-79000000D03*
%TO.P,REF\u002A\u002A,60*%
X102675000Y-78500000D03*
%TO.P,REF\u002A\u002A,61*%
X102675000Y-78000000D03*
%TO.P,REF\u002A\u002A,62*%
X102675000Y-77500000D03*
%TO.P,REF\u002A\u002A,63*%
X102675000Y-77000000D03*
%TO.P,REF\u002A\u002A,64*%
X102675000Y-76500000D03*
%TO.P,REF\u002A\u002A,65*%
X102675000Y-76000000D03*
%TO.P,REF\u002A\u002A,66*%
X102675000Y-75500000D03*
%TO.P,REF\u002A\u002A,67*%
X102675000Y-75000000D03*
%TO.P,REF\u002A\u002A,68*%
X102675000Y-74500000D03*
%TO.P,REF\u002A\u002A,69*%
X102675000Y-74000000D03*
%TO.P,REF\u002A\u002A,70*%
X102675000Y-73500000D03*
%TO.P,REF\u002A\u002A,71*%
X102675000Y-73000000D03*
%TO.P,REF\u002A\u002A,72*%
X102675000Y-72500000D03*
%TO.P,REF\u002A\u002A,73*%
X102675000Y-72000000D03*
%TO.P,REF\u002A\u002A,74*%
X102675000Y-71500000D03*
%TO.P,REF\u002A\u002A,75*%
X102675000Y-71000000D03*
D14*
%TO.P,REF\u002A\u002A,76*%
X101000000Y-69325000D03*
%TO.P,REF\u002A\u002A,77*%
X100500000Y-69325000D03*
%TO.P,REF\u002A\u002A,78*%
X100000000Y-69325000D03*
%TO.P,REF\u002A\u002A,79*%
X99500000Y-69325000D03*
%TO.P,REF\u002A\u002A,80*%
X99000000Y-69325000D03*
%TO.P,REF\u002A\u002A,81*%
X98500000Y-69325000D03*
%TO.P,REF\u002A\u002A,82*%
X98000000Y-69325000D03*
%TO.P,REF\u002A\u002A,83*%
X97500000Y-69325000D03*
%TO.P,REF\u002A\u002A,84*%
X97000000Y-69325000D03*
%TO.P,REF\u002A\u002A,85*%
X96500000Y-69325000D03*
%TO.P,REF\u002A\u002A,86*%
X96000000Y-69325000D03*
%TO.P,REF\u002A\u002A,87*%
X95500000Y-69325000D03*
%TO.P,REF\u002A\u002A,88*%
X95000000Y-69325000D03*
%TO.P,REF\u002A\u002A,89*%
X94500000Y-69325000D03*
%TO.P,REF\u002A\u002A,90*%
X94000000Y-69325000D03*
%TO.P,REF\u002A\u002A,91*%
X93500000Y-69325000D03*
%TO.P,REF\u002A\u002A,92*%
X93000000Y-69325000D03*
%TO.P,REF\u002A\u002A,93*%
X92500000Y-69325000D03*
%TO.P,REF\u002A\u002A,94*%
X92000000Y-69325000D03*
%TO.P,REF\u002A\u002A,95*%
X91500000Y-69325000D03*
%TO.P,REF\u002A\u002A,96*%
X91000000Y-69325000D03*
%TO.P,REF\u002A\u002A,97*%
X90500000Y-69325000D03*
%TO.P,REF\u002A\u002A,98*%
X90000000Y-69325000D03*
%TO.P,REF\u002A\u002A,99*%
X89500000Y-69325000D03*
%TO.P,REF\u002A\u002A,100*%
X89000000Y-69325000D03*
%TD*%
D15*
%TO.P,REF\u002A\u002A,1*%
%TO.N,N/C*%
X102000000Y-98000000D03*
%TO.P,REF\u002A\u002A,2*%
X104540000Y-98000000D03*
%TO.P,REF\u002A\u002A,3*%
X107080000Y-98000000D03*
%TO.P,REF\u002A\u002A,18*%
X145180000Y-98000000D03*
%TO.P,REF\u002A\u002A,19*%
X147720000Y-98000000D03*
%TO.P,REF\u002A\u002A,20*%
X150260000Y-98000000D03*
%TO.P,REF\u002A\u002A,21*%
X150260000Y-59900000D03*
%TO.P,REF\u002A\u002A,22*%
X147720000Y-59900000D03*
%TO.P,REF\u002A\u002A,23*%
X145180000Y-59900000D03*
%TO.P,REF\u002A\u002A,24*%
X142640000Y-59900000D03*
%TO.P,REF\u002A\u002A,25*%
X140100000Y-59900000D03*
%TO.P,REF\u002A\u002A,26*%
X137560000Y-59900000D03*
%TO.P,REF\u002A\u002A,27*%
X135020000Y-59900000D03*
%TO.P,REF\u002A\u002A,28*%
X132480000Y-59900000D03*
%TO.P,REF\u002A\u002A,29*%
X129940000Y-59900000D03*
%TO.P,REF\u002A\u002A,30*%
X127400000Y-59900000D03*
%TO.P,REF\u002A\u002A,31*%
X124860000Y-59900000D03*
%TO.P,REF\u002A\u002A,32*%
X122320000Y-59900000D03*
%TO.P,REF\u002A\u002A,33*%
X119780000Y-59900000D03*
%TO.P,REF\u002A\u002A,34*%
X117240000Y-59900000D03*
%TO.P,REF\u002A\u002A,35*%
X114700000Y-59900000D03*
%TO.P,REF\u002A\u002A,36*%
X112160000Y-59900000D03*
%TO.P,REF\u002A\u002A,37*%
X109620000Y-59900000D03*
%TO.P,REF\u002A\u002A,38*%
X107080000Y-59900000D03*
%TO.P,REF\u002A\u002A,39*%
X104540000Y-59900000D03*
%TO.P,REF\u002A\u002A,40*%
X102000000Y-59900000D03*
%TD*%
M02*
