%TF.GenerationSoftware,KiCad,Pcbnew,(6.0.10)*%
%TF.CreationDate,2023-01-08T01:11:37-07:00*%
%TF.ProjectId,decimator_pcb,64656369-6d61-4746-9f72-5f7063622e6b,rev?*%
%TF.SameCoordinates,Original*%
%TF.FileFunction,Profile,NP*%
%FSLAX46Y46*%
G04 Gerber Fmt 4.6, Leading zero omitted, Abs format (unit mm)*
G04 Created by KiCad (PCBNEW (6.0.10)) date 2023-01-08 01:11:37*
%MOMM*%
%LPD*%
G01*
G04 APERTURE LIST*
%TA.AperFunction,Profile*%
%ADD10C,0.100000*%
%TD*%
%TA.AperFunction,Profile*%
%ADD11C,0.150000*%
%TD*%
G04 APERTURE END LIST*
D10*
X148000000Y-35000000D02*
X121000000Y-35000000D01*
X181000000Y-41000000D02*
G75*
G03*
X181000000Y-35000000I0J3000000D01*
G01*
X121000000Y-35000000D02*
G75*
G03*
X121000000Y-41000000I0J-3000000D01*
G01*
X190000000Y-53000000D02*
X220000000Y-53000000D01*
X166500000Y-53000000D02*
X190000000Y-53000000D01*
X71000000Y-141500000D02*
X71000000Y-53000000D01*
D11*
X123000000Y-26000000D02*
G75*
G03*
X123000000Y-50000000I0J-12000000D01*
G01*
D10*
X123000000Y-26000000D02*
X179000000Y-26000000D01*
X220000000Y-141500000D02*
X71000000Y-141500000D01*
X133500000Y-50000000D02*
X123000000Y-50000000D01*
X121000000Y-41000000D02*
X181000000Y-41000000D01*
X138500000Y-50000000D02*
G75*
G03*
X138500000Y-53000000I0J-1500000D01*
G01*
X166500000Y-50000000D02*
G75*
G03*
X166500000Y-53000000I0J-1500000D01*
G01*
X111000000Y-53000000D02*
X71000000Y-53000000D01*
X161500000Y-50000000D02*
X138500000Y-50000000D01*
X133500000Y-53000000D02*
G75*
G03*
X133500000Y-50000000I0J1500000D01*
G01*
X220000000Y-53000000D02*
X220000000Y-141500000D01*
X161500000Y-53000000D02*
G75*
G03*
X161500000Y-50000000I0J1500000D01*
G01*
X138500000Y-53000000D02*
X161500000Y-53000000D01*
X154000000Y-35000000D02*
G75*
G03*
X148000000Y-35000000I-3000000J0D01*
G01*
X111000000Y-53000000D02*
X133500000Y-53000000D01*
X179000000Y-50000000D02*
X166500000Y-50000000D01*
D11*
X179000000Y-50000000D02*
G75*
G03*
X179000000Y-26000000I0J12000000D01*
G01*
D10*
X154000000Y-35000000D02*
X181000000Y-35000000D01*
M02*
