%TF.GenerationSoftware,KiCad,Pcbnew,(6.0.10)*%
%TF.CreationDate,2023-01-08T01:11:37-07:00*%
%TF.ProjectId,decimator_pcb,64656369-6d61-4746-9f72-5f7063622e6b,rev?*%
%TF.SameCoordinates,Original*%
%TF.FileFunction,Legend,Top*%
%TF.FilePolarity,Positive*%
%FSLAX46Y46*%
G04 Gerber Fmt 4.6, Leading zero omitted, Abs format (unit mm)*
G04 Created by KiCad (PCBNEW (6.0.10)) date 2023-01-08 01:11:37*
%MOMM*%
%LPD*%
G01*
G04 APERTURE LIST*
%ADD10C,0.300000*%
%ADD11C,0.150000*%
%ADD12C,0.120000*%
G04 APERTURE END LIST*
D10*
%TO.C,G\u002A\u002A\u002A*%
X189503914Y-88398661D02*
X189358771Y-88326089D01*
X189141057Y-88326089D01*
X188923343Y-88398661D01*
X188778200Y-88543803D01*
X188705628Y-88688946D01*
X188633057Y-88979232D01*
X188633057Y-89196946D01*
X188705628Y-89487232D01*
X188778200Y-89632375D01*
X188923343Y-89777518D01*
X189141057Y-89850089D01*
X189286200Y-89850089D01*
X189503914Y-89777518D01*
X189576486Y-89704946D01*
X189576486Y-89196946D01*
X189286200Y-89196946D01*
X190447343Y-88326089D02*
X190447343Y-88688946D01*
X190084486Y-88543803D02*
X190447343Y-88688946D01*
X190810200Y-88543803D01*
X190229628Y-88979232D02*
X190447343Y-88688946D01*
X190665057Y-88979232D01*
X191608486Y-88326089D02*
X191608486Y-88688946D01*
X191245628Y-88543803D02*
X191608486Y-88688946D01*
X191971343Y-88543803D01*
X191390771Y-88979232D02*
X191608486Y-88688946D01*
X191826200Y-88979232D01*
X192769628Y-88326089D02*
X192769628Y-88688946D01*
X192406771Y-88543803D02*
X192769628Y-88688946D01*
X193132486Y-88543803D01*
X192551914Y-88979232D02*
X192769628Y-88688946D01*
X192987343Y-88979232D01*
D11*
%TO.C,REF\u002A\u002A*%
X93666666Y-68032380D02*
X93333333Y-67556190D01*
X93095238Y-68032380D02*
X93095238Y-67032380D01*
X93476190Y-67032380D01*
X93571428Y-67080000D01*
X93619047Y-67127619D01*
X93666666Y-67222857D01*
X93666666Y-67365714D01*
X93619047Y-67460952D01*
X93571428Y-67508571D01*
X93476190Y-67556190D01*
X93095238Y-67556190D01*
X94095238Y-67508571D02*
X94428571Y-67508571D01*
X94571428Y-68032380D02*
X94095238Y-68032380D01*
X94095238Y-67032380D01*
X94571428Y-67032380D01*
X95333333Y-67508571D02*
X95000000Y-67508571D01*
X95000000Y-68032380D02*
X95000000Y-67032380D01*
X95476190Y-67032380D01*
X96000000Y-67032380D02*
X96000000Y-67270476D01*
X95761904Y-67175238D02*
X96000000Y-67270476D01*
X96238095Y-67175238D01*
X95857142Y-67460952D02*
X96000000Y-67270476D01*
X96142857Y-67460952D01*
X96761904Y-67032380D02*
X96761904Y-67270476D01*
X96523809Y-67175238D02*
X96761904Y-67270476D01*
X97000000Y-67175238D01*
X96619047Y-67460952D02*
X96761904Y-67270476D01*
X96904761Y-67460952D01*
X85426666Y-91872380D02*
X85093333Y-91396190D01*
X84855238Y-91872380D02*
X84855238Y-90872380D01*
X85236190Y-90872380D01*
X85331428Y-90920000D01*
X85379047Y-90967619D01*
X85426666Y-91062857D01*
X85426666Y-91205714D01*
X85379047Y-91300952D01*
X85331428Y-91348571D01*
X85236190Y-91396190D01*
X84855238Y-91396190D01*
X85855238Y-91348571D02*
X86188571Y-91348571D01*
X86331428Y-91872380D02*
X85855238Y-91872380D01*
X85855238Y-90872380D01*
X86331428Y-90872380D01*
X87093333Y-91348571D02*
X86760000Y-91348571D01*
X86760000Y-91872380D02*
X86760000Y-90872380D01*
X87236190Y-90872380D01*
X87760000Y-90872380D02*
X87760000Y-91110476D01*
X87521904Y-91015238D02*
X87760000Y-91110476D01*
X87998095Y-91015238D01*
X87617142Y-91300952D02*
X87760000Y-91110476D01*
X87902857Y-91300952D01*
X88521904Y-90872380D02*
X88521904Y-91110476D01*
X88283809Y-91015238D02*
X88521904Y-91110476D01*
X88760000Y-91015238D01*
X88379047Y-91300952D02*
X88521904Y-91110476D01*
X88664761Y-91300952D01*
D12*
X121000000Y-123000000D02*
X127000000Y-123000000D01*
X127000000Y-123000000D02*
X127000000Y-117000000D01*
X127000000Y-117000000D02*
X121000000Y-117000000D01*
X121000000Y-117000000D02*
X121000000Y-123000000D01*
X114000000Y-116000000D02*
X120000000Y-116000000D01*
X120000000Y-116000000D02*
X120000000Y-110000000D01*
X120000000Y-110000000D02*
X114000000Y-110000000D01*
X114000000Y-110000000D02*
X114000000Y-116000000D01*
X128000000Y-116000000D02*
X134000000Y-116000000D01*
X134000000Y-116000000D02*
X134000000Y-110000000D01*
X134000000Y-110000000D02*
X128000000Y-110000000D01*
X128000000Y-110000000D02*
X128000000Y-116000000D01*
X121000000Y-109000000D02*
X127000000Y-109000000D01*
X127000000Y-109000000D02*
X127000000Y-103000000D01*
X127000000Y-103000000D02*
X121000000Y-103000000D01*
X121000000Y-103000000D02*
X121000000Y-109000000D01*
X166000000Y-136000000D02*
X172000000Y-136000000D01*
X172000000Y-136000000D02*
X172000000Y-130000000D01*
X172000000Y-130000000D02*
X166000000Y-130000000D01*
X166000000Y-130000000D02*
X166000000Y-136000000D01*
X149000000Y-136000000D02*
X155000000Y-136000000D01*
X155000000Y-136000000D02*
X155000000Y-130000000D01*
X155000000Y-130000000D02*
X149000000Y-130000000D01*
X149000000Y-130000000D02*
X149000000Y-136000000D01*
X133000000Y-136000000D02*
X139000000Y-136000000D01*
X139000000Y-136000000D02*
X139000000Y-130000000D01*
X139000000Y-130000000D02*
X133000000Y-130000000D01*
X133000000Y-130000000D02*
X133000000Y-136000000D01*
X104300000Y-109660000D02*
X110300000Y-109660000D01*
X110300000Y-109660000D02*
X110300000Y-103660000D01*
X110300000Y-103660000D02*
X104300000Y-103660000D01*
X104300000Y-103660000D02*
X104300000Y-109660000D01*
X104300000Y-123000000D02*
X110300000Y-123000000D01*
X110300000Y-123000000D02*
X110300000Y-117000000D01*
X110300000Y-117000000D02*
X104300000Y-117000000D01*
X104300000Y-117000000D02*
X104300000Y-123000000D01*
X79000000Y-136000000D02*
X85000000Y-136000000D01*
X85000000Y-136000000D02*
X85000000Y-130000000D01*
X85000000Y-130000000D02*
X79000000Y-130000000D01*
X79000000Y-130000000D02*
X79000000Y-136000000D01*
X116000000Y-136000000D02*
X122000000Y-136000000D01*
X122000000Y-136000000D02*
X122000000Y-130000000D01*
X122000000Y-130000000D02*
X116000000Y-130000000D01*
X116000000Y-130000000D02*
X116000000Y-136000000D01*
X98000000Y-136000000D02*
X104000000Y-136000000D01*
X104000000Y-136000000D02*
X104000000Y-130000000D01*
X104000000Y-130000000D02*
X98000000Y-130000000D01*
X98000000Y-130000000D02*
X98000000Y-136000000D01*
X96000000Y-123000000D02*
X102000000Y-123000000D01*
X102000000Y-123000000D02*
X102000000Y-117000000D01*
X102000000Y-117000000D02*
X96000000Y-117000000D01*
X96000000Y-117000000D02*
X96000000Y-123000000D01*
X79000000Y-123000000D02*
X85000000Y-123000000D01*
X85000000Y-123000000D02*
X85000000Y-117000000D01*
X85000000Y-117000000D02*
X79000000Y-117000000D01*
X79000000Y-117000000D02*
X79000000Y-123000000D01*
X87580000Y-123000000D02*
X93580000Y-123000000D01*
X93580000Y-123000000D02*
X93580000Y-117000000D01*
X93580000Y-117000000D02*
X87580000Y-117000000D01*
X87580000Y-117000000D02*
X87580000Y-123000000D01*
X96000000Y-109660000D02*
X102000000Y-109660000D01*
X102000000Y-109660000D02*
X102000000Y-103660000D01*
X102000000Y-103660000D02*
X96000000Y-103660000D01*
X96000000Y-103660000D02*
X96000000Y-109660000D01*
X87580000Y-109660000D02*
X93580000Y-109660000D01*
X93580000Y-109660000D02*
X93580000Y-103660000D01*
X93580000Y-103660000D02*
X87580000Y-103660000D01*
X87580000Y-103660000D02*
X87580000Y-109660000D01*
X79000000Y-109660000D02*
X85000000Y-109660000D01*
X85000000Y-109660000D02*
X85000000Y-103660000D01*
X85000000Y-103660000D02*
X79000000Y-103660000D01*
X79000000Y-103660000D02*
X79000000Y-109660000D01*
%TO.C,G\u002A\u002A\u002A*%
G36*
X195894810Y-84331893D02*
G01*
X195971962Y-84354322D01*
X196048989Y-84384336D01*
X196110327Y-84415738D01*
X196140410Y-84442330D01*
X196141299Y-84445973D01*
X196155719Y-84477416D01*
X196177924Y-84510088D01*
X196201982Y-84535887D01*
X196225651Y-84534804D01*
X196261727Y-84502054D01*
X196293031Y-84467060D01*
X196404216Y-84376175D01*
X196535009Y-84331027D01*
X196653958Y-84330176D01*
X196774977Y-84363851D01*
X196862228Y-84424267D01*
X196910692Y-84505329D01*
X196915349Y-84600941D01*
X196905893Y-84636168D01*
X196857432Y-84718621D01*
X196788246Y-84768409D01*
X196710732Y-84781468D01*
X196637286Y-84753736D01*
X196613351Y-84732021D01*
X196584165Y-84665947D01*
X196589505Y-84586948D01*
X196625978Y-84516133D01*
X196651872Y-84492400D01*
X196684841Y-84457662D01*
X196668986Y-84434874D01*
X196605229Y-84424957D01*
X196584035Y-84424593D01*
X196486493Y-84449058D01*
X196396577Y-84518415D01*
X196321237Y-84626609D01*
X196299653Y-84672400D01*
X196275780Y-84739711D01*
X196244018Y-84844754D01*
X196207743Y-84975570D01*
X196170334Y-85120199D01*
X196151800Y-85195871D01*
X196114371Y-85356229D01*
X196089296Y-85476038D01*
X196075319Y-85563847D01*
X196071183Y-85628210D01*
X196075632Y-85677677D01*
X196078824Y-85692410D01*
X196119369Y-85779424D01*
X196183430Y-85827628D01*
X196264267Y-85839210D01*
X196355143Y-85816357D01*
X196449317Y-85761259D01*
X196540052Y-85676104D01*
X196620609Y-85563078D01*
X196650245Y-85506864D01*
X196701407Y-85412968D01*
X196745666Y-85355758D01*
X196778917Y-85337257D01*
X196797059Y-85359486D01*
X196795986Y-85424467D01*
X196794261Y-85435913D01*
X196762491Y-85530431D01*
X196701628Y-85638424D01*
X196623377Y-85742842D01*
X196539443Y-85826635D01*
X196511847Y-85847292D01*
X196374922Y-85914777D01*
X196236001Y-85938259D01*
X196103915Y-85918437D01*
X195987495Y-85856011D01*
X195931265Y-85801317D01*
X195852215Y-85707159D01*
X195764555Y-85804188D01*
X195688188Y-85871855D01*
X195606200Y-85919251D01*
X195583868Y-85927056D01*
X195512101Y-85945317D01*
X195460804Y-85949340D01*
X195406126Y-85937937D01*
X195337981Y-85914803D01*
X195232157Y-85858331D01*
X195167582Y-85782641D01*
X195147013Y-85694775D01*
X195173207Y-85601771D01*
X195199710Y-85561730D01*
X195262454Y-85513462D01*
X195340870Y-85493136D01*
X195414755Y-85503731D01*
X195447530Y-85525175D01*
X195477393Y-85587202D01*
X195474610Y-85665456D01*
X195442159Y-85739737D01*
X195410974Y-85772995D01*
X195343848Y-85825797D01*
X195404605Y-85829759D01*
X195511854Y-85827500D01*
X195600113Y-85801985D01*
X195673520Y-85748214D01*
X195736209Y-85661190D01*
X195792319Y-85535913D01*
X195845985Y-85367385D01*
X195873868Y-85262694D01*
X195924201Y-85058476D01*
X195960152Y-84896646D01*
X195982695Y-84771012D01*
X195992804Y-84675378D01*
X195991453Y-84603549D01*
X195983925Y-84563072D01*
X195939767Y-84476939D01*
X195869752Y-84432074D01*
X195779453Y-84429642D01*
X195674442Y-84470803D01*
X195641300Y-84491556D01*
X195565775Y-84546691D01*
X195511799Y-84599749D01*
X195466350Y-84666743D01*
X195416403Y-84763687D01*
X195411252Y-84774407D01*
X195362688Y-84867457D01*
X195325060Y-84917121D01*
X195293231Y-84928365D01*
X195268157Y-84912703D01*
X195257532Y-84868813D01*
X195274930Y-84796959D01*
X195315505Y-84708112D01*
X195374410Y-84613242D01*
X195433834Y-84537689D01*
X195556577Y-84425426D01*
X195689328Y-84352294D01*
X195822425Y-84323484D01*
X195833097Y-84323247D01*
X195894810Y-84331893D01*
G37*
G36*
X197933921Y-82996916D02*
G01*
X198077653Y-83055386D01*
X198196170Y-83143326D01*
X198249949Y-83208723D01*
X198293537Y-83288681D01*
X198313775Y-83371702D01*
X198317874Y-83458765D01*
X198308908Y-83559135D01*
X198278427Y-83651190D01*
X198221056Y-83743329D01*
X198131419Y-83843953D01*
X198004143Y-83961458D01*
X197986272Y-83976932D01*
X197882143Y-84067029D01*
X197769804Y-84164876D01*
X197670675Y-84251803D01*
X197655079Y-84265565D01*
X197503477Y-84399515D01*
X197814360Y-84392947D01*
X197958972Y-84387460D01*
X198068182Y-84378195D01*
X198136056Y-84365779D01*
X198154658Y-84356893D01*
X198179892Y-84312581D01*
X198200665Y-84245715D01*
X198201388Y-84242249D01*
X198225898Y-84176865D01*
X198269583Y-84149944D01*
X198276044Y-84148824D01*
X198317303Y-84150313D01*
X198323515Y-84181434D01*
X198319919Y-84199777D01*
X198309641Y-84252638D01*
X198295757Y-84333388D01*
X198280826Y-84425828D01*
X198267406Y-84513759D01*
X198258058Y-84580982D01*
X198255225Y-84609297D01*
X198230945Y-84615037D01*
X198163250Y-84620087D01*
X198059678Y-84624172D01*
X197927763Y-84627016D01*
X197775044Y-84628342D01*
X197732765Y-84628405D01*
X197556269Y-84628071D01*
X197424352Y-84626720D01*
X197330645Y-84623831D01*
X197268778Y-84618880D01*
X197232379Y-84611344D01*
X197215079Y-84600701D01*
X197210507Y-84586428D01*
X197210498Y-84585552D01*
X197227716Y-84555116D01*
X197275771Y-84494968D01*
X197349264Y-84411217D01*
X197442797Y-84309973D01*
X197550973Y-84197345D01*
X197576285Y-84171560D01*
X197691584Y-84052042D01*
X197797579Y-83937440D01*
X197887713Y-83835215D01*
X197955429Y-83752833D01*
X197994167Y-83697755D01*
X197996646Y-83693161D01*
X198042480Y-83559155D01*
X198049793Y-83423542D01*
X198021003Y-83297366D01*
X197958530Y-83191672D01*
X197871315Y-83120895D01*
X197755549Y-83080212D01*
X197637908Y-83085315D01*
X197530628Y-83124594D01*
X197469626Y-83161260D01*
X197416948Y-83204499D01*
X197381681Y-83244610D01*
X197372916Y-83271887D01*
X197386798Y-83278154D01*
X197433166Y-83300304D01*
X197472139Y-83354110D01*
X197490537Y-83420604D01*
X197490739Y-83427737D01*
X197474518Y-83504897D01*
X197423231Y-83547189D01*
X197346420Y-83558395D01*
X197272733Y-83540042D01*
X197229182Y-83490654D01*
X197213768Y-83418732D01*
X197224487Y-83332779D01*
X197259339Y-83241298D01*
X197316323Y-83152792D01*
X197393437Y-83075763D01*
X197471625Y-83026476D01*
X197618888Y-82979647D01*
X197776993Y-82970731D01*
X197933921Y-82996916D01*
G37*
G36*
X165340685Y-82169966D02*
G01*
X163672760Y-82169966D01*
X162991721Y-83578057D01*
X162879493Y-83809879D01*
X162772465Y-84030545D01*
X162672186Y-84236883D01*
X162580210Y-84425720D01*
X162498086Y-84593883D01*
X162427368Y-84738198D01*
X162369605Y-84855495D01*
X162326350Y-84942599D01*
X162299154Y-84996338D01*
X162289887Y-85013331D01*
X162253230Y-85034971D01*
X162218407Y-85040514D01*
X162179838Y-85029311D01*
X162147005Y-84989770D01*
X162126067Y-84948091D01*
X162087978Y-84863992D01*
X162039301Y-84757142D01*
X161982789Y-84633525D01*
X161921195Y-84499124D01*
X161857275Y-84359922D01*
X161793781Y-84221905D01*
X161733469Y-84091057D01*
X161679090Y-83973360D01*
X161633401Y-83874799D01*
X161599154Y-83801357D01*
X161579103Y-83759020D01*
X161575614Y-83752021D01*
X161560105Y-83730509D01*
X161539573Y-83730031D01*
X161503065Y-83753344D01*
X161470878Y-83778355D01*
X161403767Y-83826164D01*
X161361960Y-83841901D01*
X161342101Y-83826210D01*
X161339316Y-83803594D01*
X161355645Y-83775977D01*
X161398701Y-83730844D01*
X161459584Y-83675630D01*
X161529396Y-83617768D01*
X161599237Y-83564694D01*
X161660208Y-83523841D01*
X161696963Y-83504821D01*
X161710435Y-83502055D01*
X161724423Y-83506993D01*
X161740980Y-83523488D01*
X161762160Y-83555391D01*
X161790018Y-83606557D01*
X161826607Y-83680836D01*
X161873982Y-83782083D01*
X161934195Y-83914149D01*
X162009302Y-84080887D01*
X162037073Y-84142765D01*
X162101339Y-84285365D01*
X162159768Y-84413736D01*
X162210040Y-84522887D01*
X162249840Y-84607829D01*
X162276849Y-84663574D01*
X162288749Y-84685130D01*
X162289039Y-84685197D01*
X162299290Y-84665126D01*
X162326930Y-84609126D01*
X162370391Y-84520416D01*
X162428107Y-84402211D01*
X162498510Y-84257729D01*
X162580034Y-84090186D01*
X162671112Y-83902800D01*
X162770177Y-83698788D01*
X162875662Y-83481366D01*
X162932183Y-83364794D01*
X163569358Y-82050360D01*
X164455022Y-82044679D01*
X165340685Y-82039000D01*
X165340685Y-82169966D01*
G37*
G36*
X164423103Y-83013731D02*
G01*
X164517641Y-83066024D01*
X164577922Y-83135199D01*
X164615055Y-83191804D01*
X164662930Y-83127049D01*
X164738474Y-83051060D01*
X164830831Y-83009525D01*
X164947627Y-82999351D01*
X164974183Y-83000777D01*
X165087327Y-83022030D01*
X165163869Y-83066773D01*
X165203809Y-83135007D01*
X165210206Y-83186402D01*
X165198202Y-83274359D01*
X165159425Y-83332060D01*
X165104647Y-83361662D01*
X165030740Y-83370206D01*
X164973174Y-83346211D01*
X164937291Y-83299218D01*
X164928430Y-83238767D01*
X164951930Y-83174399D01*
X164980870Y-83140517D01*
X165036963Y-83088532D01*
X164987667Y-83079108D01*
X164892071Y-83081534D01*
X164803937Y-83123581D01*
X164728460Y-83201439D01*
X164670835Y-83311294D01*
X164670697Y-83311661D01*
X164648193Y-83380668D01*
X164621269Y-83477234D01*
X164592172Y-83591557D01*
X164563144Y-83713833D01*
X164536430Y-83834262D01*
X164514274Y-83943041D01*
X164498921Y-84030367D01*
X164492616Y-84086438D01*
X164492569Y-84089641D01*
X164500847Y-84165758D01*
X164529886Y-84218708D01*
X164542900Y-84232100D01*
X164604523Y-84270546D01*
X164674472Y-84273618D01*
X164759213Y-84240927D01*
X164800312Y-84216731D01*
X164864985Y-84167353D01*
X164917720Y-84104458D01*
X164969824Y-84014340D01*
X164973957Y-84006231D01*
X165024141Y-83914826D01*
X165062770Y-83863045D01*
X165091751Y-83849156D01*
X165112990Y-83871425D01*
X165115547Y-83877571D01*
X165114098Y-83921153D01*
X165091549Y-83988495D01*
X165052846Y-84068523D01*
X165002934Y-84150166D01*
X164978933Y-84183437D01*
X164914206Y-84245735D01*
X164825770Y-84302597D01*
X164730004Y-84345462D01*
X164643288Y-84365768D01*
X164628953Y-84366370D01*
X164511811Y-84345675D01*
X164407256Y-84287777D01*
X164358287Y-84240328D01*
X164302150Y-84173612D01*
X164239697Y-84240050D01*
X164142723Y-84318427D01*
X164033884Y-84357049D01*
X163907658Y-84357575D01*
X163869153Y-84351258D01*
X163795002Y-84318636D01*
X163741727Y-84260694D01*
X163712742Y-84188512D01*
X163711467Y-84113169D01*
X163741317Y-84045744D01*
X163766991Y-84020003D01*
X163833325Y-83985357D01*
X163902406Y-83976216D01*
X163958191Y-83994109D01*
X163966302Y-84001028D01*
X163990388Y-84052724D01*
X163986514Y-84119131D01*
X163956818Y-84183562D01*
X163940427Y-84202852D01*
X163908370Y-84239966D01*
X163907891Y-84259908D01*
X163920459Y-84267103D01*
X164000386Y-84276013D01*
X164083517Y-84248547D01*
X164160214Y-84189886D01*
X164220511Y-84105848D01*
X164239794Y-84056431D01*
X164265378Y-83973883D01*
X164294957Y-83867620D01*
X164326229Y-83747058D01*
X164356888Y-83621613D01*
X164384630Y-83500701D01*
X164407152Y-83393736D01*
X164422150Y-83310135D01*
X164427329Y-83260682D01*
X164413471Y-83171378D01*
X164375573Y-83112533D01*
X164319153Y-83082701D01*
X164249725Y-83080433D01*
X164172806Y-83104280D01*
X164093913Y-83152796D01*
X164018560Y-83224531D01*
X163952264Y-83318038D01*
X163914329Y-83395358D01*
X163877473Y-83465512D01*
X163841799Y-83495482D01*
X163834735Y-83496426D01*
X163802146Y-83481890D01*
X163795571Y-83442430D01*
X163810979Y-83384567D01*
X163844336Y-83314822D01*
X163891611Y-83239715D01*
X163948771Y-83165769D01*
X164011784Y-83099503D01*
X164076616Y-83047439D01*
X164129729Y-83019377D01*
X164188153Y-83005740D01*
X164266133Y-82997552D01*
X164303702Y-82996479D01*
X164423103Y-83013731D01*
G37*
G36*
X163360962Y-75403667D02*
G01*
X163513549Y-75481177D01*
X163603654Y-75566073D01*
X163681858Y-75659014D01*
X163803407Y-75535996D01*
X163942401Y-75430182D01*
X164097303Y-75383351D01*
X164268429Y-75389992D01*
X164414436Y-75433719D01*
X164507936Y-75511720D01*
X164553902Y-75628894D01*
X164559473Y-75676797D01*
X164559962Y-75774732D01*
X164538363Y-75836552D01*
X164484903Y-75889507D01*
X164482503Y-75891402D01*
X164373334Y-75948937D01*
X164270377Y-75951360D01*
X164197070Y-75908851D01*
X164153443Y-75824591D01*
X164154142Y-75723427D01*
X164197791Y-75634040D01*
X164210902Y-75620686D01*
X164265130Y-75560255D01*
X164262078Y-75524573D01*
X164199396Y-75509200D01*
X164151066Y-75507726D01*
X164053027Y-75519662D01*
X163968334Y-75559430D01*
X163893464Y-75632970D01*
X163824897Y-75746222D01*
X163759111Y-75905125D01*
X163692584Y-76115619D01*
X163621794Y-76383643D01*
X163614701Y-76412389D01*
X163558795Y-76652376D01*
X163522817Y-76839591D01*
X163506099Y-76982438D01*
X163507972Y-77089318D01*
X163527766Y-77168635D01*
X163551106Y-77211091D01*
X163626126Y-77266319D01*
X163734382Y-77282672D01*
X163857294Y-77259766D01*
X163943662Y-77219219D01*
X164051462Y-77129520D01*
X164157314Y-77001820D01*
X164242744Y-76860513D01*
X164276292Y-76780019D01*
X164321001Y-76694621D01*
X164374777Y-76669606D01*
X164423307Y-76691554D01*
X164433575Y-76750806D01*
X164411357Y-76837473D01*
X164362431Y-76941669D01*
X164292574Y-77053504D01*
X164207564Y-77163093D01*
X164113179Y-77260546D01*
X164015195Y-77335975D01*
X163971276Y-77360190D01*
X163873365Y-77390695D01*
X163749168Y-77409162D01*
X163689633Y-77411706D01*
X163512288Y-77387635D01*
X163372998Y-77313676D01*
X163276195Y-77204043D01*
X163219914Y-77118249D01*
X163164989Y-77202076D01*
X163050092Y-77321010D01*
X162897230Y-77391200D01*
X162742414Y-77409250D01*
X162638288Y-77404424D01*
X162556641Y-77394916D01*
X162532630Y-77389126D01*
X162423038Y-77318838D01*
X162354901Y-77212204D01*
X162338984Y-77123004D01*
X162361909Y-76996194D01*
X162422736Y-76902296D01*
X162509540Y-76849821D01*
X162610395Y-76847282D01*
X162681283Y-76878662D01*
X162745373Y-76953010D01*
X162753718Y-77047583D01*
X162706671Y-77150678D01*
X162671827Y-77192300D01*
X162585103Y-77282821D01*
X162732023Y-77282821D01*
X162870729Y-77263434D01*
X162978523Y-77199959D01*
X163065880Y-77084422D01*
X163108938Y-76995966D01*
X163148622Y-76887790D01*
X163194692Y-76737248D01*
X163243556Y-76559195D01*
X163291621Y-76368488D01*
X163335295Y-76179983D01*
X163370984Y-76008535D01*
X163395097Y-75869000D01*
X163404040Y-75776235D01*
X163404041Y-75775685D01*
X163382797Y-75644511D01*
X163324835Y-75557803D01*
X163238802Y-75514114D01*
X163133351Y-75511995D01*
X163017131Y-75549999D01*
X162898792Y-75626677D01*
X162786985Y-75740582D01*
X162690359Y-75890265D01*
X162687625Y-75895609D01*
X162618478Y-76025800D01*
X162568101Y-76104167D01*
X162530397Y-76138451D01*
X162499269Y-76136395D01*
X162498421Y-76135882D01*
X162470517Y-76083676D01*
X162480687Y-75994836D01*
X162524315Y-75881145D01*
X162596781Y-75754382D01*
X162693468Y-75626329D01*
X162701992Y-75616517D01*
X162851360Y-75486139D01*
X163018534Y-75406782D01*
X163192179Y-75379080D01*
X163360962Y-75403667D01*
G37*
G36*
X165783029Y-73681298D02*
G01*
X165950640Y-73723031D01*
X166005346Y-73745348D01*
X166159454Y-73837943D01*
X166260611Y-73953284D01*
X166316909Y-74103730D01*
X166334628Y-74248299D01*
X166337421Y-74371411D01*
X166325653Y-74458349D01*
X166292759Y-74536993D01*
X166249971Y-74607778D01*
X166186730Y-74686587D01*
X166081527Y-74795173D01*
X165943866Y-74924357D01*
X165783253Y-75064960D01*
X165731969Y-75108033D01*
X165309654Y-75459314D01*
X165542934Y-75467918D01*
X165696556Y-75468684D01*
X165858386Y-75461936D01*
X165969860Y-75451780D01*
X166163507Y-75427040D01*
X166193912Y-75289873D01*
X166223797Y-75195957D01*
X166262864Y-75155970D01*
X166282666Y-75152707D01*
X166314721Y-75157856D01*
X166333055Y-75180431D01*
X166338279Y-75231125D01*
X166331003Y-75320632D01*
X166311835Y-75459645D01*
X166303371Y-75515794D01*
X166265299Y-75765921D01*
X165609257Y-75765921D01*
X165387187Y-75765539D01*
X165221511Y-75763923D01*
X165104074Y-75760372D01*
X165026724Y-75754184D01*
X164981306Y-75744655D01*
X164959668Y-75731083D01*
X164953655Y-75712767D01*
X164953598Y-75709441D01*
X164975516Y-75670015D01*
X165036411Y-75593091D01*
X165129362Y-75486558D01*
X165247449Y-75358306D01*
X165383752Y-75216224D01*
X165407323Y-75192192D01*
X165603594Y-74987960D01*
X165755332Y-74817869D01*
X165867411Y-74674519D01*
X165944704Y-74550511D01*
X165992084Y-74438444D01*
X166014423Y-74330920D01*
X166017836Y-74265159D01*
X165990317Y-74105434D01*
X165915119Y-73975100D01*
X165804066Y-73878528D01*
X165668981Y-73820085D01*
X165521687Y-73804141D01*
X165374007Y-73835065D01*
X165237765Y-73917225D01*
X165193475Y-73960538D01*
X165159273Y-74005577D01*
X165166094Y-74039745D01*
X165219379Y-74086987D01*
X165222816Y-74089693D01*
X165288614Y-74173378D01*
X165300410Y-74263997D01*
X165264155Y-74344564D01*
X165185800Y-74398098D01*
X165110432Y-74410394D01*
X165019950Y-74390161D01*
X164969172Y-74325289D01*
X164953215Y-74209515D01*
X164953215Y-74208690D01*
X164983789Y-74037884D01*
X165074115Y-73888520D01*
X165222094Y-73763564D01*
X165298562Y-73720268D01*
X165433651Y-73679089D01*
X165602920Y-73666376D01*
X165783029Y-73681298D01*
G37*
%TO.C,REF\u002A\u002A*%
X194000000Y-79000000D02*
X200000000Y-79000000D01*
X200000000Y-79000000D02*
X200000000Y-73000000D01*
X200000000Y-73000000D02*
X194000000Y-73000000D01*
X194000000Y-73000000D02*
X194000000Y-79000000D01*
X204160000Y-79000000D02*
X210160000Y-79000000D01*
X210160000Y-79000000D02*
X210160000Y-73000000D01*
X210160000Y-73000000D02*
X204160000Y-73000000D01*
X204160000Y-73000000D02*
X204160000Y-79000000D01*
X88590000Y-69890000D02*
X87890000Y-69890000D01*
X101410000Y-84110000D02*
X102110000Y-84110000D01*
X88590000Y-84110000D02*
X87890000Y-84110000D01*
X87890000Y-70590000D02*
X86525000Y-70590000D01*
X102110000Y-69890000D02*
X102110000Y-70590000D01*
X87890000Y-84110000D02*
X87890000Y-83410000D01*
X87890000Y-69890000D02*
X87890000Y-70590000D01*
X101410000Y-69890000D02*
X102110000Y-69890000D01*
X102110000Y-84110000D02*
X102110000Y-83410000D01*
X152800000Y-59900000D02*
X173120000Y-59900000D01*
X154070000Y-98000000D02*
X173120000Y-98000000D01*
X173120000Y-59900000D02*
X173120000Y-98000000D01*
X99460000Y-98000000D02*
X79140000Y-98000000D01*
X99460000Y-59900000D02*
X79140000Y-59900000D01*
X109620000Y-98000000D02*
X142640000Y-98000000D01*
X79140000Y-59900000D02*
X79140000Y-98000000D01*
%TD*%
M02*
