%TF.GenerationSoftware,KiCad,Pcbnew,(6.0.10)*%
%TF.CreationDate,2023-01-08T01:11:37-07:00*%
%TF.ProjectId,decimator_pcb,64656369-6d61-4746-9f72-5f7063622e6b,rev?*%
%TF.SameCoordinates,Original*%
%TF.FileFunction,Paste,Top*%
%TF.FilePolarity,Positive*%
%FSLAX46Y46*%
G04 Gerber Fmt 4.6, Leading zero omitted, Abs format (unit mm)*
G04 Created by KiCad (PCBNEW (6.0.10)) date 2023-01-08 01:11:37*
%MOMM*%
%LPD*%
G01*
G04 APERTURE LIST*
G04 Aperture macros list*
%AMRoundRect*
0 Rectangle with rounded corners*
0 $1 Rounding radius*
0 $2 $3 $4 $5 $6 $7 $8 $9 X,Y pos of 4 corners*
0 Add a 4 corners polygon primitive as box body*
4,1,4,$2,$3,$4,$5,$6,$7,$8,$9,$2,$3,0*
0 Add four circle primitives for the rounded corners*
1,1,$1+$1,$2,$3*
1,1,$1+$1,$4,$5*
1,1,$1+$1,$6,$7*
1,1,$1+$1,$8,$9*
0 Add four rect primitives between the rounded corners*
20,1,$1+$1,$2,$3,$4,$5,0*
20,1,$1+$1,$4,$5,$6,$7,0*
20,1,$1+$1,$6,$7,$8,$9,0*
20,1,$1+$1,$8,$9,$2,$3,0*%
%AMOutline4P*
0 Free polygon, 4 corners , with rotation*
0 The origin of the aperture is its center*
0 number of corners: always 4*
0 $1 to $8 corner X, Y*
0 $9 Rotation angle, in degrees counterclockwise*
0 create outline with 4 corners*
4,1,4,$1,$2,$3,$4,$5,$6,$7,$8,$1,$2,$9*%
G04 Aperture macros list end*
%ADD10Outline4P,-0.550000X-0.825000X0.550000X-0.825000X0.550000X0.825000X-0.550000X0.825000X180.000000*%
%ADD11RoundRect,0.075000X-0.725000X-0.075000X0.725000X-0.075000X0.725000X0.075000X-0.725000X0.075000X0*%
%ADD12RoundRect,0.075000X-0.075000X-0.725000X0.075000X-0.725000X0.075000X0.725000X-0.075000X0.725000X0*%
G04 APERTURE END LIST*
D10*
%TO.C,REF\u002A\u002A*%
X121800000Y-124300000D03*
X126200000Y-115700000D03*
X121800000Y-115700000D03*
X126200000Y-124300000D03*
%TD*%
%TO.C,REF\u002A\u002A*%
X114800000Y-117300000D03*
X119200000Y-108700000D03*
X114800000Y-108700000D03*
X119200000Y-117300000D03*
%TD*%
%TO.C,REF\u002A\u002A*%
X128800000Y-117300000D03*
X133200000Y-108700000D03*
X128800000Y-108700000D03*
X133200000Y-117300000D03*
%TD*%
%TO.C,REF\u002A\u002A*%
X121800000Y-110300000D03*
X126200000Y-101700000D03*
X121800000Y-101700000D03*
X126200000Y-110300000D03*
%TD*%
%TO.C,REF\u002A\u002A*%
X166800000Y-137300000D03*
X171200000Y-128700000D03*
X166800000Y-128700000D03*
X171200000Y-137300000D03*
%TD*%
%TO.C,REF\u002A\u002A*%
X149800000Y-137300000D03*
X154200000Y-128700000D03*
X149800000Y-128700000D03*
X154200000Y-137300000D03*
%TD*%
%TO.C,REF\u002A\u002A*%
X133800000Y-137300000D03*
X138200000Y-128700000D03*
X133800000Y-128700000D03*
X138200000Y-137300000D03*
%TD*%
%TO.C,REF\u002A\u002A*%
X105100000Y-110960000D03*
X109500000Y-102360000D03*
X105100000Y-102360000D03*
X109500000Y-110960000D03*
%TD*%
%TO.C,REF\u002A\u002A*%
X105100000Y-124300000D03*
X109500000Y-115700000D03*
X105100000Y-115700000D03*
X109500000Y-124300000D03*
%TD*%
%TO.C,REF\u002A\u002A*%
X79800000Y-137300000D03*
X84200000Y-128700000D03*
X79800000Y-128700000D03*
X84200000Y-137300000D03*
%TD*%
%TO.C,REF\u002A\u002A*%
X116800000Y-137300000D03*
X121200000Y-128700000D03*
X116800000Y-128700000D03*
X121200000Y-137300000D03*
%TD*%
%TO.C,REF\u002A\u002A*%
X98800000Y-137300000D03*
X103200000Y-128700000D03*
X98800000Y-128700000D03*
X103200000Y-137300000D03*
%TD*%
%TO.C,REF\u002A\u002A*%
X96800000Y-124300000D03*
X101200000Y-115700000D03*
X96800000Y-115700000D03*
X101200000Y-124300000D03*
%TD*%
%TO.C,REF\u002A\u002A*%
X79800000Y-124300000D03*
X84200000Y-115700000D03*
X79800000Y-115700000D03*
X84200000Y-124300000D03*
%TD*%
%TO.C,REF\u002A\u002A*%
X88380000Y-124300000D03*
X92780000Y-115700000D03*
X88380000Y-115700000D03*
X92780000Y-124300000D03*
%TD*%
%TO.C,REF\u002A\u002A*%
X96800000Y-110960000D03*
X101200000Y-102360000D03*
X96800000Y-102360000D03*
X101200000Y-110960000D03*
%TD*%
%TO.C,REF\u002A\u002A*%
X88380000Y-110960000D03*
X92780000Y-102360000D03*
X88380000Y-102360000D03*
X92780000Y-110960000D03*
%TD*%
%TO.C,REF\u002A\u002A*%
X79800000Y-110960000D03*
X84200000Y-102360000D03*
X79800000Y-102360000D03*
X84200000Y-110960000D03*
%TD*%
%TO.C,REF\u002A\u002A*%
X194800000Y-71700000D03*
X194800000Y-80300000D03*
X199200000Y-71700000D03*
X199200000Y-80300000D03*
%TD*%
%TO.C,REF\u002A\u002A*%
X204960000Y-71700000D03*
X204960000Y-80300000D03*
X209360000Y-71700000D03*
X209360000Y-80300000D03*
%TD*%
D11*
%TO.C,REF\u002A\u002A*%
X87325000Y-71000000D03*
X87325000Y-71500000D03*
X87325000Y-72000000D03*
X87325000Y-72500000D03*
X87325000Y-73000000D03*
X87325000Y-73500000D03*
X87325000Y-74000000D03*
X87325000Y-74500000D03*
X87325000Y-75000000D03*
X87325000Y-75500000D03*
X87325000Y-76000000D03*
X87325000Y-76500000D03*
X87325000Y-77000000D03*
X87325000Y-77500000D03*
X87325000Y-78000000D03*
X87325000Y-78500000D03*
X87325000Y-79000000D03*
X87325000Y-79500000D03*
X87325000Y-80000000D03*
X87325000Y-80500000D03*
X87325000Y-81000000D03*
X87325000Y-81500000D03*
X87325000Y-82000000D03*
X87325000Y-82500000D03*
X87325000Y-83000000D03*
D12*
X89000000Y-84675000D03*
X89500000Y-84675000D03*
X90000000Y-84675000D03*
X90500000Y-84675000D03*
X91000000Y-84675000D03*
X91500000Y-84675000D03*
X92000000Y-84675000D03*
X92500000Y-84675000D03*
X93000000Y-84675000D03*
X93500000Y-84675000D03*
X94000000Y-84675000D03*
X94500000Y-84675000D03*
X95000000Y-84675000D03*
X95500000Y-84675000D03*
X96000000Y-84675000D03*
X96500000Y-84675000D03*
X97000000Y-84675000D03*
X97500000Y-84675000D03*
X98000000Y-84675000D03*
X98500000Y-84675000D03*
X99000000Y-84675000D03*
X99500000Y-84675000D03*
X100000000Y-84675000D03*
X100500000Y-84675000D03*
X101000000Y-84675000D03*
D11*
X102675000Y-83000000D03*
X102675000Y-82500000D03*
X102675000Y-82000000D03*
X102675000Y-81500000D03*
X102675000Y-81000000D03*
X102675000Y-80500000D03*
X102675000Y-80000000D03*
X102675000Y-79500000D03*
X102675000Y-79000000D03*
X102675000Y-78500000D03*
X102675000Y-78000000D03*
X102675000Y-77500000D03*
X102675000Y-77000000D03*
X102675000Y-76500000D03*
X102675000Y-76000000D03*
X102675000Y-75500000D03*
X102675000Y-75000000D03*
X102675000Y-74500000D03*
X102675000Y-74000000D03*
X102675000Y-73500000D03*
X102675000Y-73000000D03*
X102675000Y-72500000D03*
X102675000Y-72000000D03*
X102675000Y-71500000D03*
X102675000Y-71000000D03*
D12*
X101000000Y-69325000D03*
X100500000Y-69325000D03*
X100000000Y-69325000D03*
X99500000Y-69325000D03*
X99000000Y-69325000D03*
X98500000Y-69325000D03*
X98000000Y-69325000D03*
X97500000Y-69325000D03*
X97000000Y-69325000D03*
X96500000Y-69325000D03*
X96000000Y-69325000D03*
X95500000Y-69325000D03*
X95000000Y-69325000D03*
X94500000Y-69325000D03*
X94000000Y-69325000D03*
X93500000Y-69325000D03*
X93000000Y-69325000D03*
X92500000Y-69325000D03*
X92000000Y-69325000D03*
X91500000Y-69325000D03*
X91000000Y-69325000D03*
X90500000Y-69325000D03*
X90000000Y-69325000D03*
X89500000Y-69325000D03*
X89000000Y-69325000D03*
%TD*%
M02*
