<?xml version="1.0" encoding="UTF-8" standalone="no"?>
<!-- Created with Inkscape (http://www.inkscape.org/) -->

<svg
   xmlns:dc="http://purl.org/dc/elements/1.1/"
   xmlns:cc="http://creativecommons.org/ns#"
   xmlns:rdf="http://www.w3.org/1999/02/22-rdf-syntax-ns#"
   xmlns:svg="http://www.w3.org/2000/svg"
   xmlns="http://www.w3.org/2000/svg"
   xmlns:sodipodi="http://sodipodi.sourceforge.net/DTD/sodipodi-0.dtd"
   xmlns:inkscape="http://www.inkscape.org/namespaces/inkscape"
   width="500mm"
   height="500mm"
   viewBox="0 0 500 500"
   version="1.1"
   id="svg4495"
   inkscape:version="0.92.1 r15371"
   sodipodi:docname="Tinkerbell_Flying_Wand_and_Stars.svg">
  <defs
     id="defs4489" />
  <sodipodi:namedview
     id="base"
     pagecolor="#ffffff"
     bordercolor="#666666"
     borderopacity="1.0"
     inkscape:pageopacity="0.0"
     inkscape:pageshadow="2"
     inkscape:zoom="0.175"
     inkscape:cx="187.01175"
     inkscape:cy="925.36095"
     inkscape:document-units="mm"
     inkscape:current-layer="layer1"
     showgrid="false"
     inkscape:window-width="1366"
     inkscape:window-height="715"
     inkscape:window-x="-8"
     inkscape:window-y="-8"
     inkscape:window-maximized="1" />
  <metadata
     id="metadata4492">
    <rdf:RDF>
      <cc:Work
         rdf:about="">
        <dc:format>image/svg+xml</dc:format>
        <dc:type
           rdf:resource="http://purl.org/dc/dcmitype/StillImage" />
        <dc:title></dc:title>
      </cc:Work>
    </rdf:RDF>
  </metadata>
  <g
     inkscape:label="Layer 1"
     inkscape:groupmode="layer"
     id="layer1"
     transform="translate(0,203)">
    <path
       inkscape:connector-curvature="0"
       style="display:inline;opacity:1;fill:#000000;fill-opacity:1;stroke:none;stroke-width:1.03610027;stroke-opacity:1"
       d="m 77.585387,-197.99977 c -0.99212,0 -2.83908,7.25176 -4.352836,17.09566 -0.306707,1.99449 -0.765998,4.51437 -1.258696,6.9694 -0.492698,2.45502 -1.018206,4.84439 -1.459038,6.57477 -0.321901,1.26357 -0.577189,2.56263 -0.773032,4.07765 -0.195817,1.51498 -0.332673,3.24558 -0.416869,5.37677 -0.08425,2.13124 -0.116258,4.66261 -0.103181,7.77481 0.01323,3.11221 0.07003,6.80555 0.165921,11.26353 0.06028,2.80474 0.128692,5.36771 0.20844,7.74246 0.07979,2.37467 0.172611,4.5624 0.285354,6.61321 0.169058,3.07618 0.382589,5.84733 0.663743,8.49318 0.09366,0.88195 0.194003,1.74984 0.303534,2.61051 0.219098,1.72131 0.472367,3.41211 0.764932,5.12786 0.877691,5.14729 2.11557,10.509439 3.897518,17.516589 1.15933,4.55882 2.35373,9.45439 2.65501,10.87904 0.0753,0.35603 0.18319,0.73863 0.31162,1.12716 0.38534,1.16561 0.96571,2.37615 1.47725,3.01723 0.17053,0.21354 0.36707,0.53752 0.57674,0.93898 0.41933,0.80289 0.89011,1.91686 1.30525,3.09006 0.20757,0.58662 0.4023,1.1887 0.56864,1.77271 1.78351,6.26217 8.98161,21.04042 12.56675,25.79933 0.42931,0.56983 0.87538,1.18624 1.31335,1.81314 1.31249,1.88081 2.55362,3.85303 3.07592,4.9215 0.0987,0.20183 0.23512,0.44376 0.36423,0.67589 1.955983,3.62728 6.221043,9.18831 11.846353,15.5658 3.5719,4.1583 7.40581,8.34404 10.81631,11.7107602 2.42767,2.39651 4.62924,4.71449 6.23886,6.53433 0.83763,1.13264 1.09003,1.90778 2.47693,4.33662 -6.03776,-2.20229005 -12.79431,-6.76005 -19.67983,-7.70803 -7.96706,-4.4277402 -16.824513,-8.0922802 -26.784803,-11.4355302 -2.36489,-1.2065 -4.70856,-2.31156 -5.44358,-2.33529 -0.73502,-0.0227 -3.20895,-1.51521 -5.380839,-3.43411 -4.430766,-3.91463 -5.249009,-5.50301 -4.972069,-15.40592 0.09918,-3.54632 -0.326815,-8.03189 -0.947056,-9.6143 0.828901,-1.97872 -2.093619,-4.35574 -2.875586,-6.56464 -3.585038,-3.59126 -1.655595,0.399 -1.426658,2.05198 l 1.276914,4.0493 c -0.953368,2.49814 -0.839355,2.85002 -6.886421,-2.59026 -3.113389,-2.801 -6.474797,-5.65453 -7.098913,-6.45742 -1.89796,-2.41515 -5.09268,-2.48809 -3.525167,2.65296 0.456611,1.49756 1.699082,3.47175 3.480645,5.13599 6.176918,5.77011 8.469891,14.40865 5.544763,18.409 -1.273738,1.74195 -1.486794,1.74297 -4.488418,0.0189 -0.540607,-1.42049 -3.884029,-2.9806 -6.483729,-2.05802 -2.279544,0.80897 0.08258,2.2973 7.08474,6.94309 2.565975,1.70248 5.544669,7.06698 10.124243,6.79942 3.760071,0.82753 12.331781,7.18574 14.653131,10.0028 0.7821,0.9491102 2.00655,1.7261802 2.72178,1.7261802 0.71524,0 1.9339,0.7615 2.70762,1.69375 0.77374,0.9323 3.04612,2.7973 5.04897,4.14239 2.00286,1.3451 5.27237,3.61413 7.26687,5.0429 1.99449,1.42873 5.258213,3.74418 7.252693,5.14611 1.9945,1.4019 5.69808,4.0141898 8.23012,5.8057998 4.91627,3.47855 18.32414,9.253175 21.47277,9.247997 1.88956,-0.003 12.28541,3.87975 18.76313,7.007868 1.86692,0.901528 3.22799,2.138073 3.02532,2.746046 -0.38485,1.154529 -6.97833,3.404022 -11.83622,4.296178 -0.3873,0.0412 -0.63843,0.05329 -1.11098,0.109228 -1.25369,0.148535 -2.28379,0.201826 -3.26412,0.151936 -2.20569,-0.399381 -5.72995,-1.725161 -8.85947,-3.193276 -3.15187,-1.6405 -5.88952,-3.333043 -6.24089,-3.901559 -0.19071,-0.308786 -0.64389,-0.697698 -1.22024,-1.072551 h -0.002 c -0.28808,-0.187464 -0.60671,-0.372282 -0.93897,-0.542323 h -0.002 c -0.33283,-0.170078 -0.67759,-0.325038 -1.01991,-0.455318 -0.68464,-0.260409 -1.30728,-0.645391 -1.75854,-1.056338 -0.22563,-0.205606 -0.40781,-0.417334 -0.53422,-0.62328 -0.0632,-0.103181 -0.11241,-0.205228 -0.1457,-0.303495 -0.0333,-0.09827 -0.0506,-0.192378 -0.0506,-0.283464 -1e-5,-0.155338 -0.0717,-0.352629 -0.20644,-0.582802 -0.40393,-0.690744 -1.37805,-1.694282 -2.70356,-2.857402 h -0.002 C 108.56469,17.469499 97.625077,10.255839 94.970457,10.255079 c -0.44113,-1.9e-4 -0.98916,-0.14626 -1.5157,-0.3804398 h -0.002 c -0.52711,-0.23471 -1.03213,-0.55854 -1.39024,-0.91468 -0.11766,-0.11717 -0.27666,-0.22451 -0.4796,-0.31975 h -0.002 c -0.40719,-0.19087 -0.99458,-0.33978 -1.79699,-0.44723 h -0.002 c -2.00892,-0.26873 -5.36554,-0.28233 -10.62003,-0.079 -6.378497,0.24718 -15.443458,0.4803 -20.145272,0.51802 -4.701803,0.0378 -8.548324,0.3953 -8.547829,0.79528 5.1e-4,0.40003 2.098105,2.1716798 4.662454,3.9359898 h 0.0021 c 1.922671,1.32295 3.584026,2.73089 4.294148,3.59398 0.236749,0.28762 0.366273,0.51402 0.366273,0.65768 0,0.0718 -0.03024,0.15609 -0.09109,0.25096 -0.424943,0.66285 -2.262314,1.8348 -4.445926,2.8007 -4.413105,1.952166 -10.561945,7.417423 -16.504756,14.584333 -0.848971,1.023872 -1.694656,2.083044 -2.529537,3.171053 -0.52671,0.686399 -0.983135,1.326762 -1.420596,1.950798 -0.08235,0.117543 -0.188031,0.251338 -0.267136,0.366236 l -0.0021,0.002 c -0.497026,0.723059 -0.931266,1.399895 -1.299176,2.019623 -0.001,0.002 -0.0031,0.0038 -0.0042,0.0076 -0.551723,0.929383 -0.954786,1.734647 -1.204064,2.387899 -0.08383,0.21959 -0.149706,0.420471 -0.198311,0.605063 -0.04807,0.182551 -0.07997,0.349227 -0.09305,0.495797 -0.01323,0.148535 -0.0094,0.277417 0.01436,0.386531 0.0072,0.03402 0.02759,0.05442 0.03844,0.08504 0.02343,0.06614 0.04445,0.134929 0.08496,0.182173 0.294349,0.341669 1.044326,0.169323 2.280633,-0.637415 0.26861,-0.17537 0.66905,-0.368125 1.135253,-0.564585 0.121852,-0.05027 0.233234,-0.0994 0.366273,-0.149669 0.349454,-0.137196 0.783592,-0.276282 1.19799,-0.414839 0.0083,-0.003 0.01814,-0.0038 0.02646,-0.0076 2.057104,-0.643047 4.813038,-1.253779 7.45102,-1.703882 2.395859,-0.283085 5.332967,-0.38963 8.203802,-0.360188 0.405489,0.589681 -0.60676,5.123212 -2.280633,10.182928 -2.913101,8.805482 -3.079105,10.219588 -2.994973,25.396619 0.05938,10.710359 0.610649,18.072443 1.651287,22.067736 1.942955,7.45952 2.019691,18.55622 0.153788,22.264 -0.774404,1.53879 -1.663471,4.45703 -1.975066,6.48369 -0.311584,2.02669 -1.381569,5.52354 -2.377766,7.77076 -1.846189,4.16469 -4.937796,14.23453 -6.661793,21.69942 -1.227191,5.31544 -1.227803,16.43058 -0.0021,21.75812 2.299085,9.99157 4.303816,17.8406 5.293819,20.72199 0.587387,1.70956 1.788041,5.2064 2.669171,7.77073 0.881142,2.56437 2.211392,6.06121 2.956532,7.77076 1.936182,4.44222 3.263749,9.37306 4.61388,17.14828 0.721872,4.15717 0.774226,7.06256 -0.0042,9.59809 -0.06486,0.13946 -0.126009,0.23735 -0.192226,0.39261 -0.682468,1.59923 -1.912598,3.7124 -2.733937,4.69685 -2.180161,2.61312 -0.951232,9.37959 2.798695,15.41196 1.728464,2.78056 3.461059,6.80831 3.850966,8.95054 0.73185,4.02088 3.681163,10.93857 5.896871,13.83156 0.694116,0.90625 2.659805,2.40408 4.369028,3.32685 h 0.0021 c 1.662462,0.89707 3.187914,1.43224 4.563284,1.61283 0.344654,0.0454 0.678159,0.0699 1.003722,0.0711 1.624858,0.004 3.009208,-0.54512 4.128228,-1.6331 0.44805,-0.4354 0.853,-0.95667 1.21417,-1.56426 0.36087,-0.60707 0.67826,-1.29891 0.94909,-2.07624 0.27084,-0.77734 0.49641,-1.64024 0.67387,-2.58621 0.22257,-1.18643 -0.31472,-1.97223 -0.71232,-2.49312 -0.0627,-0.27213 -0.11792,-0.5418 -0.16997,-0.80946 0.0808,-0.0302 0.15799,-0.0639 0.30558,-0.085 2.76996,0.52384 9.31111,-1.99842 5.20275,-5.65601 -2.87424,-0.50555 -4.64851,-1.74395 -5.63783,-3.40784 0.85042,-6.74304 2.88153,-13.06213 -1.21621,-22.36314 -3.20548,-7.2758 -2.86359,-15.32273 -0.90659,-25.63137 0.88475,-6.55331 1.99077,-15.17884 2.45872,-19.16786 0.46793,-3.98898 1.84066,-12.61452 3.05164,-19.16782 1.21096,-6.55335 2.66433,-14.50795 3.22972,-17.67643 0.56539,-3.16852 1.028,-9.12069 1.028,-13.2265 0,-6.40681 0.44916,-8.25756 3.16091,-13.06254 1.73782,-3.07921 3.83592,-6.16001 4.66245,-6.84595 0.82654,-0.68595 1.50154,-2.06566 1.50154,-3.06579 0,-1.00018 0.77193,-2.45798 1.71402,-3.23985 0.94211,-0.78186 2.22575,-2.58802 2.853323,-4.01286 0.62758,-1.42488 4.67762,-7.95207 8.99909,-14.50541 1.77306,-2.68879 3.41415,-5.279 4.90933,-7.74038 0.0928,-0.0113 0.18228,-0.034 0.26105,-0.0831 7.8445,-3.33391 9.37025,-16.757849 9.2217,-19.61713 1.86624,-0.254739 3.9301,4.743219 4.44997,6.046624 2.00718,-2.659798 1.98908,-9.819262 1.82329,-14.167446 0.19461,-2.017129 0.32821,-4.190653 0.38045,-6.400764 0.0329,-1.394718 0.11845,-2.512888 0.29745,-3.405761 0.53711,-2.678658 1.92246,-3.328848 5.30193,-3.328886 2.70547,-3.8e-5 11.76347,1.852493 19.38842,3.763946 h 0.002 c 3.04923,0.764445 5.86887,1.539209 7.96097,2.207805 h 0.002 c 1.04537,0.33411 1.90993,0.641422 2.52953,0.908596 0.23452,0.101291 0.51726,0.199559 0.84386,0.293291 h 0.002 c 1.95993,0.562581 5.46089,0.97897 9.12862,1.086687 h 0.002 c 0.61082,0.0189 1.22783,0.02646 1.84151,0.02646 0.94553,0 1.79234,-0.0038 2.5599,-0.0189 1.07706,-0.0189 1.95213,-0.06198 2.75214,-0.121323 0.34409,-0.02646 0.70782,-0.04535 1.01182,-0.08088 0.50002,-0.05858 0.9503,-0.131528 1.36594,-0.222614 0.15228,-0.03402 0.28127,-0.08315 0.42496,-0.121323 0.2555,-0.06803 0.51807,-0.131149 0.7528,-0.216566 0.72934,-0.264944 1.37946,-0.618858 2.0722,-1.084684 0.33521,-0.225259 0.68399,-0.479205 1.05431,-0.760854 0.002,-0.001 0.004,-0.003 0.006,-0.0038 0.0113,-0.0076 0.0212,-0.01512 0.0321,-0.02268 0.0754,-0.05745 0.15753,-0.133417 0.23475,-0.196157 2.52474,-2.034741 5.25817,-5.712325 6.75891,-8.64901 1.53648,-2.603558 2.65613,-5.06255 2.66312,-6.352197 0.004,-1.020886 1.01231,-2.004354 2.33933,-2.280637 10.214,-2.126545 20.34065,-4.044726 28.23372,-5.34847 14.426,-2.382797 19.22678,-4.574993 39.25649,-17.935436 5.63476,-3.758591 10.99658,-7.294662 11.91515,-7.857772 8.16988,-5.00839 12.3964,-7.90392 13.53203,-9.2722898 0.73871,-0.89008 1.75967,-1.61892 2.26851,-1.61892 0.5088,0 4.1306,-2.33121 8.04799,-5.18051 8.21497,-5.97508 11.78544,-6.54726 16.43999,-2.63070005 1.6673,1.40292 5.08277,3.02717005 7.59064,3.60812005 7.02317,1.62693 20.2762,8.8492098 23.61174,12.8682698 0.77374,0.9323 1.84981,1.69583 2.39194,1.69583 0.54213,0 3.96993,2.44777 7.61698,5.439532 8.67622,7.117323 10.97621,8.840367 19.63531,14.705725 3.98898,2.702015 8.65143,6.210276 10.36098,7.797069 1.70959,1.58683 3.57652,3.059784 4.14847,3.272193 0.70201,0.260787 4.8176,4.392253 8.01764,7.843633 -0.5224,1.320752 -0.8852,2.699142 -1.08064,4.105954 -2.98279,2.123068 -10.99219,3.538044 -28.86712,3.563594 16.24342,-0.02646 24.93261,1.086611 29.15248,2.910001 0.5204,2.250287 1.47295,4.37808 2.80474,6.265155 -0.99768,2.111163 -3.00305,4.420902 -4.65436,6.740732 2.22182,-0.993295 4.55152,-3.122713 6.78525,-4.241526 2.06007,2.008436 4.57549,3.488646 7.33158,4.314395 1.79887,4.815068 3.21263,13.699844 3.99265,29.286004 0.19427,-15.054495 1.75857,-24.356039 4.4621,-28.871164 2.4664,-0.477391 4.80414,-1.470383 6.86012,-2.914046 2.25313,0.804282 4.80063,2.847904 7.61089,5.991972 -1.33919,-3.08643 -3.6142,-6.295807 -4.06147,-9.264165 1.48547,-1.805513 2.60141,-3.885457 3.28437,-6.121495 4.17451,-2.575363 12.87549,-4.5519 29.58753,-5.467866 -16.98337,-0.389744 -25.6921,-2.370438 -29.71097,-5.25334 -0.65091,-2.01505 -1.65547,-3.898119 -2.96666,-5.560956 0.0469,-1.619561 0.61436,-3.338221 1.39835,-5.099551 -1.35477,1.219725 -2.57412,2.104322 -3.68707,2.725825 -2.5028,-2.166608 -5.55918,-3.593867 -8.82707,-4.12213 -2.64169,-7.184825 -2.84352,-20.407392 -4.22535,-30.708665 -1.54415,9.957186 -1.27864,24.154868 -4.93363,31.617261 -2.76664,1.048022 -5.22915,2.767778 -7.16566,5.004459 -0.0975,-0.002 -0.2022,-0.01512 -0.3016,-0.02268 -1.11526,-0.591268 -2.15769,-1.082568 -2.81892,-1.278951 -0.13833,-0.0412 -0.24605,-0.06728 -0.36812,-0.101291 -0.2332,-0.0892 -0.48125,-0.199937 -0.70625,-0.279307 -4.49331,-1.58237 -18.76409,-11.040915 -21.45862,-14.222097 -1.34313,-1.585659 -22.44822,-18.272844 -28.97439,-22.909564 -3.394,-2.41137 -6.84958,-8.5782898 -8.89384,-15.8672798 -0.71921,-2.56437 -1.60827,-5.02037 -1.97507,-5.45778 -0.36661,-0.43736 -3.66605,-1.0535 -7.33166,-1.3699902 -3.66552,-0.31635 -7.78217,-1.29702 -9.14681,-2.17742 -3.70332,-2.38926 -12.84824,-2.9667 -14.54789,-0.91873 -0.74615,0.89904 -2.11403,1.66836 -3.04149,1.70997 -0.92749,0.0416 -3.08647,0.97028 -4.79602,2.0621002 -1.70959,1.09176 -3.80767,2.27792 -4.66245,2.63678 -0.85481,0.35868 -7.56183,3.39533 -14.90611,6.74677995 -7.34425,3.35149005 -13.78054,6.09315005 -14.30302,6.09315005 -0.52252,0 -3.05824,0.95962 -5.63383,2.13294 -6.38761,2.9098798 -8.24218,2.3976798 -7.82537,-2.16329 0.18066,-1.97755 0.92023,-4.06222 1.64318,-4.63206 0.72298,-0.56988005 1.61268,-3.57214 1.9771,-6.67194 0.36435,-3.09981 1.30178,-6.2758902 2.08433,-7.0584402 1.20635,-1.20631 1.90386,-1.01896 4.57949,1.23242 4.02541,3.3871302 5.44561,3.3546602 5.44561,-0.12132 0,-3.88618 2.06089,-9.58448 4.87089,-13.47334 2.97656,-4.11944 3.91853,-5.77506 0.76694,-12.2106 -1.38644,-2.8312 -3.77967,-4.96953 -3.6486,-6.15592 0.0858,-0.7753 -1.57798,-1.84059 -0.91672,-2.34943 1.62395,-1.24954 3.05298,0.17197 3.84694,0.10507 -2.32001,-7.42958 -11.25147,-6.81439 -21.02352,-8.86958 -0.5246,-1.65282 -0.92304,-1.68011 -4.79602,-0.3137 -5.41858,1.91179 -10.43072,1.88443 -19.01003,-0.10507 -8.72732,-2.02401 -15.17703,-4.49634 -16.73544,-6.4129 -0.6946,-0.85421 -0.97168,-3.00075 -0.64554,-5.0105 0.37859,-2.33295 -0.002,-4.39184 -1.13121,-6.11545 -1.41112,-2.15361 -1.4787,-2.95891 -0.39462,-4.69481 1.17448,-1.88068 0.83274,-2.50257 -3.34102,-6.09723 -4.42264,-3.80903 -5.07166,-4.02858 -13.38229,-4.5471 -8.53982,-0.53276 -8.85098,-0.46888 -13.99746,2.87966 -7.87107,5.12128 -10.32497,7.97395 -12.33405,14.34754 -1.00201,3.17876 -2.2829,6.06412 -2.84724,6.41289 -2.33058,1.44038 0.21101,8.21762 4.539,12.10338 3.15753,2.83482 3.98043,3.6249 3.62635,5.24321 -0.71432,1.32903 -1.41044,3.34824 -2.13493,6.07293 -0.21982,0.7144 -0.41323,1.38481 -0.52412,1.87592 -0.31623,1.4005 -1.47772,4.07493 -2.58013,5.94341 -1.70285,2.88611 -2.30922,3.23406 -4.03108,2.31299 h -0.002 c -0.13894,-0.0745 -0.28003,-0.16403 -0.42295,-0.26495 h -0.002 c -1.00404,-0.70971 -2.05816,-2.01849 -2.48097,-3.13053 -0.1208,-0.31786 -0.28211,-0.66153 -0.47151,-1.00777 -0.37885,-0.69253 -0.86724,-1.4005 -1.35382,-1.96498 -0.24329,-0.28233 -0.4858,-0.52871 -0.71434,-0.71837 -0.79987,-0.66383 -1.47337,-1.71885 -1.62902,-2.50325 -0.0223,-0.11187 -0.0321,-0.21845 -0.0321,-0.31786 0,-0.39635 -0.11361,-0.95871 -0.29544,-1.54604 -0.18183,-0.58734 -0.4324,-1.19902 -0.70828,-1.6938 -0.55178,-0.98951 -3.54617,-7.16082 -6.6537,-13.71416 -1.55377,-3.27666 -3.65108,-7.30449 -5.77951,-11.15427 -1.59631,-2.88728 -3.21017,-5.67411 -4.62399,-7.96907 -0.47126,-0.76498 -0.92077,-1.4756 -1.33965,-2.11668 -6.42674,-9.83578 -10.77521,-17.07666 -17.56513,-29.249609 -1.24053,-2.22398 -2.98894,-4.65308 -3.88539,-5.39704 -0.78437,-0.65099 -1.444,-1.64538 -1.59664,-2.36159 -0.0219,-0.10243 -0.0321,-0.19805 -0.0321,-0.28725 0,-0.0994 -0.0204,-0.2279 -0.0567,-0.38249 -0.1087,-0.46325 -0.37255,-1.16004 -0.74267,-1.99732 -0.49351,-1.11636 -1.17536,-2.48394 -1.93257,-3.89143 -0.75722,-1.40753 -1.58866,-2.85467 -2.37979,-4.12621 -0.79114,-1.27151 -1.54169,-2.36753 -2.13696,-3.07592 -0.23943,-0.28498 -0.50502,-0.64955 -0.77909,-1.06443 -0.54815,-0.82975 -1.13166,-1.86183 -1.61891,-2.85939 -0.24362,-0.49879 -0.46296,-0.98812 -0.6415,-1.44083 -0.17855,-0.45271 -0.4061,-0.93615 -0.66172,-1.42057 -0.51125,-0.96888 -1.13974,-1.94543 -1.74437,-2.70765 -0.30232,-0.38109 -0.59825,-0.70907 -0.87016,-0.95516 -0.81572,-0.73821 -1.52,-1.75706 -1.82126,-2.57203 -0.10039,-0.27175 -0.15583,-0.52056 -0.15583,-0.72851 0,-0.10393 -0.0181,-0.24037 -0.0506,-0.4027 -0.16191,-0.81233 -0.70742,-2.30071 -1.430713,-3.92787 -0.2894,-0.65087 -0.60622,-1.32479 -0.93903,-1.98519 -0.66535,-1.32105 -1.59861,-3.22 -2.56367,-5.21724 -0.96508,-1.99725 -1.96364,-4.0922 -2.76227,-5.80175 -1.59724,-3.41914 -3.58924,-7.61535 -4.42771,-9.3249 -0.83848,-1.70955 -2.36894,-5.7375 -3.40173,-8.95054 -1.03276,-3.21305 -2.78046,-7.64238 -3.88335,-9.84296 -0.27534,-0.54989 -0.55927,-1.15582 -0.83373,-1.77876 -0.54894,-1.24588 -1.06537,-2.56111 -1.43274,-3.64863 -0.18368,-0.54372 -0.32878,-1.03083 -0.42294,-1.42261 -0.0942,-0.39175 -0.20836,-0.76634 -0.33188,-1.10691 C 78.388987,-197.27939 77.924307,-198 77.585867,-198 Z M 252.401,-162.2543 c -0.55324,3.5676 -0.45913,8.6546 -1.76866,11.32831 -0.99073,0.37568 -1.87249,0.99182 -2.56595,1.79292 -0.84684,-0.0189 -1.88734,-0.39038 -3.18519,-1.2263 0.38634,0.9682 1.6535,2.06124 2.08232,3.03545 -0.19048,0.47882 -0.32239,0.97889 -0.39261,1.48939 -1.0687,0.7607 -3.93834,1.26773 -10.34277,1.27691 5.81986,-0.008 8.93406,0.38887 10.44599,1.04216 0.18633,0.80599 0.52705,1.56816 1.00372,2.24421 -0.35754,0.75639 -1.07584,1.58505 -1.66748,2.41624 0.79608,-0.35603 1.63207,-1.11889 2.43242,-1.51978 0.73802,0.7197 1.63921,1.25011 2.62669,1.54609 0.64448,1.7252 1.15124,4.90812 1.4307,10.4925 0.0695,-5.3939 0.63,-8.72705 1.59866,-10.3448 0.88327,-0.17121 1.72043,-0.52705 2.45668,-1.0442 0.80727,0.28837 1.72101,1.02058 2.72787,2.1471 -0.47981,-1.10585 -1.29475,-2.2552 -1.455,-3.31876 0.53189,-0.64709 0.93138,-1.39244 1.17573,-2.19363 1.49567,-0.92273 4.61404,-1.63067 10.60181,-1.95888 -6.08502,-0.13985 -9.20641,-0.84907 -10.64633,-1.88198 -0.23282,-0.72222 -0.59271,-1.39721 -1.06242,-1.99328 0.0151,-0.58027 0.2211,-1.19625 0.50188,-1.82732 -0.48541,0.43699 -0.9227,0.75473 -1.32143,0.97739 -0.89677,-0.77643 -1.99196,-1.28795 -3.16293,-1.47727 -0.94651,-2.57423 -1.01862,-7.31162 -1.5137,-11.00247 z m -56.60712,19.61709 c -0.40131,2.58803 -0.33297,6.27842 -1.28295,8.21799 -0.71872,0.27251 -1.35871,0.72004 -1.86175,1.30118 -0.61433,-0.0151 -1.36949,-0.28384 -2.311,-0.89038 0.28025,0.70235 1.20058,1.49503 1.51166,2.20172 -0.13814,0.34734 -0.23429,0.71029 -0.28532,1.0806 -0.77527,0.55185 -2.85771,0.92016 -7.50362,0.92682 4.22186,-0.008 6.48171,0.28308 7.5785,0.75684 0.13504,0.5847 0.3827,1.13658 0.7285,1.62701 -0.25927,0.54871 -0.78093,1.1495 -1.21012,1.75249 0.57748,-0.25814 1.18401,-0.81207 1.76459,-1.1029 0.5354,0.52206 1.18997,0.90844 1.90626,1.12312 0.46757,1.25151 0.83342,3.55985 1.03612,7.61089 0.0506,-3.91286 0.45887,-6.33009 1.16156,-7.50363 0.64074,-0.12435 1.24671,-0.38373 1.78079,-0.75885 0.58564,0.20901 1.24872,0.74097 1.97911,1.55818 -0.34809,-0.8022 -0.94008,-1.63661 -1.05634,-2.40812 0.38585,-0.46942 0.67672,-1.00939 0.85398,-1.59057 1.08499,-0.66939 3.34612,-1.1825 7.68981,-1.42061 -4.41421,-0.10129 -6.67765,-0.61666 -7.7222,-1.36595 -0.16894,-0.52392 -0.43026,-1.01246 -0.77098,-1.44488 0.0113,-0.42096 0.16063,-0.8697 0.36435,-1.32751 -0.35226,0.3171 -0.66996,0.54878 -0.95925,0.71032 -0.65053,-0.56326 -1.44328,-0.9352 -2.29276,-1.07255 -0.68659,-1.86739 -0.73966,-5.30376 -1.09882,-7.98121 z m 109.19325,14.45076 c -0.55325,3.5676 -0.4591,8.65464 -1.76863,11.32831 -0.99076,0.37568 -1.87252,0.99182 -2.56599,1.79296 -0.84683,-0.0189 -1.88734,-0.39042 -3.18518,-1.22634 0.38634,0.9682 1.65353,2.0612 2.08232,3.03545 -0.19049,0.47883 -0.32239,0.97893 -0.39258,1.48939 -1.06873,0.76067 -3.93837,1.26777 -10.3428,1.27691 5.81985,-0.008 8.93406,0.38888 10.44598,1.0422 0.18633,0.80599 0.52706,1.56813 1.00373,2.24421 -0.35754,0.75635 -1.0758,1.58501 -1.66749,2.4162 0.79608,-0.35603 1.63208,-1.11885 2.43243,-1.51974 0.67271,0.65355 1.48108,1.15098 2.36764,1.457 0.0967,0.0877 0.20031,0.19956 0.29329,0.27742 0.0113,0.008 0.0227,0.0151 0.0378,0.0265 0.61032,1.767 1.09092,4.902789 1.35991,10.278019 0.0541,-4.19277 0.4074,-7.126319 1.01586,-8.991019 0.32731,0.079 0.62003,0.11149 0.80337,0.0265 0.56984,-0.26419 1.85204,-0.76936 2.84927,-1.12109 0.28006,-0.0986 0.54179,-0.25965 0.77911,-0.45331 0.42508,0.34772 0.86921,0.77544 1.3356,1.29717 -0.25058,-0.57781 -0.58979,-1.16731 -0.88229,-1.75045 0.35528,-0.44383 0.58076,-0.97372 0.58076,-1.47526 0,-0.95924 0.4444,-2.18872 0.98755,-2.73187 0.008,-0.008 0.008,-0.0151 0.0113,-0.0227 1.73624,-0.69203 4.69912,-1.22142 9.62439,-1.49139 -6.08502,-0.13985 -9.20641,-0.84911 -10.64633,-1.88202 -0.23282,-0.72222 -0.59274,-1.39721 -1.06242,-1.99328 0.0151,-0.58026 0.2211,-1.19625 0.50188,-1.82732 -0.48544,0.43703 -0.92269,0.75474 -1.32147,0.97742 -0.78244,-0.67558 -1.71711,-1.15124 -2.72379,-1.38621 -0.0378,-0.0113 -0.0699,-0.0189 -0.10507,-0.0265 -0.11074,-0.0227 -0.22223,-0.0446 -0.33373,-0.0627 -0.9465,-2.57423 -1.01862,-7.31162 -1.51369,-11.00247 z m -136.58918,4.95185 c -0.23361,1.5064 -0.19377,3.65494 -0.74672,4.78388 -0.41834,0.15874 -0.78983,0.41855 -1.08264,0.75681 -0.35758,-0.008 -0.79769,-0.16516 -1.34572,-0.51802 0.16312,0.4088 0.69922,0.86959 0.88029,1.28096 -0.0804,0.2022 -0.13625,0.41378 -0.16596,0.62933 -0.45126,0.32125 -1.66277,0.53642 -4.36699,0.54031 2.45741,-0.004 3.7711,0.16328 4.40949,0.43915 0.0787,0.34015 0.22367,0.6616 0.42496,0.94703 -0.15092,0.31937 -0.4544,0.66898 -0.70422,1.01994 0.33615,-0.15042 0.68805,-0.47225 1.02598,-0.6415 0.31162,0.30388 0.69404,0.52868 1.11098,0.65363 0.27213,0.72847 0.48506,2.07175 0.60304,4.42975 0.0295,-2.27758 0.26688,-3.68393 0.67589,-4.36701 0.37296,-0.0722 0.72522,-0.22299 1.0361,-0.44118 0.34087,0.1217 0.72631,0.43094 1.15146,0.90659 -0.20259,-0.46692 -0.5455,-0.95327 -0.61317,-1.40235 0.22458,-0.27326 0.39262,-0.5865 0.4958,-0.92481 0.63154,-0.38963 1.94796,-0.68908 4.47627,-0.82768 -2.56937,-0.059 -3.88649,-0.35905 -4.49449,-0.79528 -0.0983,-0.30501 -0.25093,-0.59014 -0.44924,-0.84181 0.007,-0.24492 0.094,-0.50457 0.21248,-0.77103 -0.20496,0.18445 -0.39014,0.319 -0.55852,0.41284 -0.37865,-0.32768 -0.84115,-0.54334 -1.33559,-0.62328 -0.39964,-1.08695 -0.43042,-3.08783 -0.63947,-4.64627 z m 68.52835,1.91232 c -0.55329,3.5676 -0.45914,8.65464 -1.76867,11.32831 -0.99076,0.37568 -1.87252,0.99182 -2.56599,1.79293 -0.84684,-0.0189 -1.8873,-0.39035 -3.18519,-1.22631 0.38635,0.9682 1.65351,2.06128 2.08233,3.03545 -0.19049,0.47883 -0.32239,0.97889 -0.39258,1.48939 -1.06873,0.76071 -3.93837,1.26777 -10.3428,1.27691 5.81985,-0.008 8.93406,0.38888 10.44598,1.04217 0.18633,0.80598 0.52706,1.56816 1.00373,2.2442 -0.35754,0.756389 -1.0758,1.585049 -1.66745,2.416239 0.79604,-0.35603 1.63203,-1.11885 2.43239,-1.51974 0.73806,0.71966 1.63925,1.25008 2.62668,1.54605 0.64453,1.7252 1.15128,4.90812 1.4307,10.49251 0.0695,-5.3939 0.63005,-8.72706 1.5987,-10.34481 0.88327,-0.17121 1.7204,-0.52705 2.45665,-1.04416 0.8073,0.288 1.721,1.02054 2.72787,2.14706 -0.47981,-1.10584 -1.29472,-2.2552 -1.455,-3.31875 0.53192,-0.647089 0.93138,-1.392449 1.17573,-2.193629 1.4957,-0.92273 4.61407,-1.63068 10.60185,-1.95889 -6.08503,-0.13984 -9.20642,-0.84907 -10.64638,-1.88197 -0.23281,-0.72223 -0.5927,-1.39721 -1.06238,-1.99328 0.0151,-0.58027 0.2211,-1.19626 0.50184,-1.82732 -0.4854,0.43698 -0.92265,0.75473 -1.32143,0.97742 -0.89673,-0.77647 -1.99195,-1.28795 -3.16293,-1.47726 -0.9465,-2.57423 -1.01857,-7.31167 -1.51365,-11.00252 z m -135.04314,4.54105 c 0.12585,-0.004 0.264,0.0378 0.40877,0.12548 0.57915,0.35792 0.7852,1.08438 0.45733,1.61488 -0.88818,1.43712 -1.50962,1.17036 -1.50962,-0.64959 0,-0.66633 0.26592,-1.07803 0.64352,-1.09073 z m -20.329433,0.63337 c 0.56986,0 1.0361,0.46624 1.0361,1.03612 0,0.56984 -0.46624,1.03608 -1.0361,1.03608 -0.56985,0 -1.0361,-0.46624 -1.0361,-1.03608 0,-0.56988 0.46625,-1.03612 1.0361,-1.03612 z m 26.343653,5.2979 c 0.42496,0.0378 0.59495,0.40067 0.40068,0.98347 -0.2493,0.74793 -1.06525,1.56389 -1.81317,1.81319 -0.77706,0.2589 -1.1656,-0.12964 -0.90658,-0.90659 0.24929,-0.74793 1.06522,-1.56386 1.81316,-1.81319 0.19427,-0.0646 0.36427,-0.0888 0.50591,-0.0767 z m -25.728463,3.57373 c 0.2078,-0.0858 0.71145,0.2279 1.65128,0.88637 1.13698,0.79634 2.7514,2.426 3.5879,3.62029 1.11883,1.59726 2.18925,2.00276 4.0493,1.53592 1.8397,-0.46175 2.52954,-0.20901 2.52954,0.92277 0,0.855569 -0.73776,1.837599 -1.63914,2.183499 -0.90139,0.34582 -1.71734,0.55891 -1.81318,0.47353 -0.0958,-0.0854 -1.45621,-0.3496 -3.02331,-0.58684 -1.94148,-0.29405 -2.84928,-1.05029 -2.84928,-2.373729 0,-1.06824 -0.41158,-2.19559 -0.91265,-2.50525 -0.50108,-0.30954 -1.15423,-1.49847 -1.45297,-2.64086 -0.24695,-0.94432 -0.33528,-1.42991 -0.12748,-1.5157 z m 7.46518,0.59089 c 0.0672,-6.5e-4 0.1372,0.0113 0.20844,0.034 0.56986,0.18973 1.03611,0.81226 1.03611,1.38213 0,0.56984 -0.46625,1.19017 -1.03611,1.38013 -0.56985,0.19011 -1.03609,-0.43037 -1.03609,-1.38013 0,-0.83104 0.35667,-1.41183 0.82766,-1.41656 z m 21.519313,0.8985 c 0.92718,0 1.2867,1.22373 1.12109,3.81255 -0.23626,3.693309 -1.92214,5.610959 -3.16496,3.600029 -1.01177,-1.637059 0.58092,-7.412579 2.04387,-7.412579 z m -14.078413,0.20032 c 0.4296,0.008 0.89183,0.26985 1.51772,0.7892 0.87267,0.72427 1.36514,1.67803 1.09277,2.11876 -0.27239,0.44073 0.19774,1.37808 1.046223,2.08232 1.87737,1.558069 2.0263,4.820169 0.24888,5.471869 -1.034363,0.37917 -1.035063,0.7505 -0.004,1.84354 1.06374,1.12777 1.53943,1.03003 2.69953,-0.5565 0.86285,-1.18004 2.06828,-1.67149 3.11234,-1.27082 2.32125,0.89072 2.15177,3.54409 -0.27523,4.31436 -3.63249,1.1529 -4.3814,3.05116 -2.60643,6.6092 0.78351,1.57058 1.77262,2.89171 2.36157,3.19736 0.0841,0.0435 0.16063,0.0665 0.22666,0.0665 1.40099,0 1.17756,-2.86348 -0.26105,-3.34302 -0.68253,-0.22753 -0.92759,-1.18159 -0.55244,-2.15924 0.96341,-2.51062 7.15722,-2.31692 9.52322,0.29745 1.96734,2.17386 3.6486,1.91856 3.6486,-0.5545 0,-0.71848 -0.53602,-1.32324 -1.24251,-1.46305 -0.10091,-0.0189 -0.20481,-0.0302 -0.31162,-0.0302 -0.85479,0 -1.55415,-0.69937 -1.55415,-1.55414 0,-1.97276 0.9499,-1.95481 5.05907,0.0952 2.62012,1.30711 3.62095,1.38761 4.82233,0.39058 1.79657,-1.49106 1.87191,-1.03907 0.45127,2.69751 -0.91369,2.40314 -0.73037,3.03371 1.29513,4.4621 2.28019,1.608 2.71032,1.78821 4.9498,2.06816 0.56985,0.071 1.0361,0.59504 1.0361,1.1636 0,0.56851 1.63185,3.30481 3.62634,6.08101 1.99449,2.77617 3.62635,5.31718 3.62635,5.64796 0,0.33071 1.33516,2.60658 2.96664,5.05703 5.26043,7.90112 15.77055,29.23363 15.46259,31.38251 -0.23097,1.61147 -0.94434,2.00802 -3.14675,1.75045 -1.56711,-0.18331 -2.84927,0.11074 -2.84927,0.65162 0,1.73083 2.49571,3.12918 6.21255,3.48268 4.5925,0.43676 5.29363,3.07214 1.33964,5.0348 l -2.88975,1.43475 2.84928,0.37228 c 2.54204,0.33298 2.84928,0.79718 2.84928,4.30427 0,2.16203 -0.29733,6.0941302 -0.65971,8.7380502 -0.70966,5.17744995 -1.38711,5.72188995 -3.94608,3.16293 -2.52025,-2.52022 -10.01005,-6.23942 -14.11687,-7.00987 -2.02465,-0.37981 -6.09629,-0.23207 -9.04766,0.32768 -2.95134,0.55975 -5.95209,0.77503 -6.66989,0.47958 -3.72805,-1.53448 -25.55014,-30.9536002 -32.477283,-43.7833202 -1.43647,-2.66045 -3.0151,-5.53583 -3.50695,-6.39064 -3.90292,-6.78276 -11.06398,-27.08682 -10.10197,-28.64251 0.30183,-0.48812 2.34172,-0.86139 4.53293,-0.82968 2.95308,0.0427 3.87965,0.44489 3.57778,1.55414 -0.87546,3.21698 -0.56503,5.45475 0.82362,5.93532 1.12442,0.38914 1.30502,-0.22791 0.80541,-2.72583 -0.51609,-2.58043 -0.2231,-3.45244 1.46309,-4.35483 1.42909,-0.76486 2.51688,-0.7897 3.37338,-0.079 0.69727,0.57872 1.87698,0.66947 2.632763,0.20259 1.904,-1.17676 -1.468033,-6.28746 -4.148463,-6.28746 -2.10808,0 -2.49822,-1.67727 -0.95717,-4.11404 1.04829,-1.65755 1.23416,-1.5631 2.97879,1.52383 0.97923,1.73256 1.06011,1.4779 0.49579,-1.55418 -0.37123,-1.99449 -1.41181,-4.178709 -2.31302,-4.852669 -1.28189,-0.95864 -1.36741,-1.50021 -0.38853,-2.49312 0.49357,-0.50064 0.88981,-0.74986 1.31941,-0.74268 z m 22.747663,5.41321 c 1.2508,-0.0858 1.9483,1.252149 2.60846,4.389269 0.37833,1.79776 0.26914,3.52844 -0.24283,3.84486 -1.12248,0.69373 -3.33495,-1.34055 -3.33495,-3.06575 0,-0.67986 -0.78106,-1.53445 -1.73426,-1.90023 -1.51839,-0.58261 -1.4437,-0.86785 0.60508,-2.30286 0.84549,-0.59221 1.52997,-0.926249 2.09851,-0.965289 z m -33.367683,3.015189 c 0.60893,-0.042 1.30372,0.23924 1.96495,0.90054 1.29189,1.29192 1.2332,1.71666 -0.44318,3.23376 -2.11213,1.91145 -3.31472,1.37589 -3.31472,-1.47727 0,-1.61665 0.77806,-2.58723 1.79295,-2.65703 z m 27.155133,2.76834 c 0.53621,0 1.26468,0.46624 1.61687,1.03612 0.35221,0.56984 -0.087,1.03608 -0.97538,1.03608 -0.88841,0 -1.61487,-0.46624 -1.61487,-1.03608 0,-0.56988 0.43715,-1.03612 0.97338,-1.03612 z m 263.129,1.34978 c -0.45482,2.9326 -0.37644,7.1129 -1.45296,9.31073 -0.81505,0.30916 -1.54041,0.81596 -2.11067,1.47522 -0.69611,-0.0151 -1.55168,-0.3205 -2.61856,-1.00777 0.31748,0.79589 1.36153,1.69436 1.71401,2.49512 -0.15685,0.39292 -0.26532,0.80334 -0.3239,1.2223 -0.87855,0.62528 -3.23671,1.04273 -8.50131,1.05025 4.78408,-0.008 7.34345,0.32088 8.58631,0.85803 0.15345,0.66213 0.43374,1.28825 0.82563,1.84353 -0.29366,0.62177 -0.88365,1.30193 -1.37,1.98519 0.65439,-0.29253 1.33943,-0.91902 1.99733,-1.2486 0.60669,0.59161 1.34751,1.02762 2.1592,1.27087 0.52981,1.41815 0.94605,4.03421 1.17573,8.6247 0.0571,-4.4339 0.51912,-7.17348 1.31539,-8.50331 0.72608,-0.14059 1.41429,-0.43302 2.01958,-0.85802 0.66357,0.23697 1.41452,0.83863 2.24216,1.76462 -0.39439,-0.90902 -1.06423,-1.85359 -1.19595,-2.72787 0.43748,-0.53178 0.76618,-1.14444 0.96729,-1.80306 1.22948,-0.75847 3.79169,-1.34101 8.71375,-1.61079 -5.002,-0.1149 -7.56651,-0.69702 -8.75018,-1.54605 -0.15836,-0.49035 -0.38827,-0.95467 -0.68194,-1.37812 -0.0488,-0.12586 -0.11112,-0.26268 -0.17008,-0.39863 0.0378,-0.43718 0.18142,-0.8937 0.39058,-1.36395 -0.27402,0.24642 -0.52385,0.43253 -0.76294,0.59293 -0.75057,-1.33141 -1.74999,-1.9689 -2.74604,-2.06411 -0.15383,-0.0151 -0.3069,-0.0151 -0.45937,-0.008 -0.004,3.4e-4 -0.0113,0.002 -0.0151,0.002 -0.5003,-2.20195 -0.60068,-5.39674 -0.94708,-7.97917 z m -48.47616,1.97707 c -0.24907,1.60501 -0.20599,3.89468 -0.79529,5.09754 -0.17953,0.0677 -0.35149,0.15308 -0.51398,0.25512 -0.23999,0.15156 -0.45611,0.33751 -0.64149,0.55245 -0.19049,-0.004 -0.40184,-0.0499 -0.63946,-0.13946 -0.23773,-0.0896 -0.50131,-0.22488 -0.79328,-0.41284 0.17386,0.43559 0.74403,0.92769 0.93694,1.36596 -0.0711,0.17839 -0.12397,0.36359 -0.15798,0.55245 -0.008,0.0389 -0.0113,0.0782 -0.0189,0.11754 -0.12019,0.0854 -0.29065,0.16328 -0.52411,0.23282 -0.70102,0.20863 -1.96724,0.33902 -4.12821,0.34205 1.30915,-0.002 2.31344,0.0404 3.07592,0.12132 0.76248,0.0809 1.28284,0.19918 1.62296,0.3462 0.0835,0.36322 0.2366,0.707 0.45124,1.01182 -0.16063,0.34016 -0.48457,0.7107 -0.75076,1.08465 0.35829,-0.16026 0.73473,-0.50162 1.09481,-0.68194 0.0684,0.0669 0.13984,0.13039 0.21468,0.19011 h 0.002 c 0.0302,0.0227 0.0643,0.0465 0.0971,0.0688 0.1217,0.0903 0.25021,0.17084 0.38449,0.24076 0.085,0.0435 0.17197,0.0828 0.26117,0.11754 h 0.002 c 0.0726,0.0302 0.14589,0.0544 0.22073,0.0767 0.28989,0.77616 0.51783,2.20878 0.64353,4.72114 0.0227,-1.8215 0.17046,-3.11984 0.42698,-3.96225 0.0854,-0.28082 0.18255,-0.51016 0.2914,-0.69211 0.39794,-0.0767 0.77518,-0.2366 1.10694,-0.46949 0.18142,0.065 0.37417,0.18028 0.57876,0.34205 0.20485,0.16176 0.42104,0.37001 0.64754,0.62328 -0.10809,-0.2487 -0.25284,-0.50147 -0.38044,-0.75281 -0.12737,-0.25096 -0.23698,-0.49939 -0.27326,-0.73859 0.0605,-0.0748 0.11716,-0.15232 0.17008,-0.23282 0.065,-0.0975 0.12359,-0.1988 0.17612,-0.3035 v -0.002 c 0.45668,-0.0956 0.83618,-0.39443 1.05029,-0.79529 0.32618,-0.0971 0.73977,-0.18255 1.21213,-0.26116 0.15383,-0.0265 0.31446,-0.0503 0.48567,-0.0729 0.6161,-0.0835 1.32604,-0.15421 2.20376,-0.20221 -0.57823,-0.0151 -1.06722,-0.0438 -1.53191,-0.079 -0.17953,-0.0151 -0.35906,-0.0302 -0.52211,-0.0465 -0.21354,-0.0227 -0.39495,-0.0484 -0.5828,-0.0748 -0.41166,-0.0609 -0.78073,-0.1304 -1.08264,-0.21241 -0.004,-9.8e-4 -0.0113,-0.002 -0.0189,-0.004 -0.11225,-0.74631 -0.75348,-1.32548 -1.52983,-1.32548 0.008,-0.26116 0.0983,-0.53767 0.2245,-0.82159 -0.21846,0.19654 -0.41355,0.33902 -0.59293,0.43914 -0.14513,-0.12548 -0.30236,-0.23584 -0.46949,-0.32995 -0.29556,-0.16668 -0.61822,-0.27968 -0.95312,-0.33411 -0.1062,-0.28913 -0.1886,-0.64025 -0.25512,-1.02799 0,0 0,-0.002 0,-0.002 -0.19918,-1.16587 -0.26003,-2.67647 -0.42701,-3.92182 z m -229.095513,7.03417 c -0.56986,0 -1.02819,1.04904 -1.01991,2.33121 0.0129,1.88514 0.20773,2.03383 1.01991,0.77706 1.298153,-2.00873 1.298153,-3.10827 0,-3.10827 z m 197.642213,18.70037 c -0.24869,1.60501 -0.20598,3.89468 -0.79528,5.09755 -0.44621,0.16894 -0.84333,0.44655 -1.15552,0.80742 -0.38097,-0.008 -0.84884,-0.1765 -1.43274,-0.55245 0.17386,0.43559 0.74404,0.92768 0.93695,1.36595 -0.034,0.0888 -0.0654,0.17915 -0.0911,0.27137 v 0.002 c -0.0782,0.13796 -0.14778,0.28498 -0.19842,0.4472 -0.53987,0.31181 -1.81361,0.52025 -4.53902,0.52414 2.3469,-0.004 3.67936,0.14513 4.42771,0.38653 0.0227,0.56965 0.21354,1.0718 0.50997,1.42666 -0.16517,0.24491 -0.35603,0.4947 -0.53828,0.75076 0.26305,-0.11754 0.53454,-0.31975 0.80337,-0.49784 0.22791,0.17386 0.48775,0.2812 0.77099,0.2812 0.0442,0 0.0862,-0.0151 0.12964,-0.0189 0.18141,0.1028 0.37341,0.18557 0.57271,0.2468 0.28988,0.77616 0.51779,2.20879 0.6435,4.72115 0.0302,-2.42668 0.2827,-3.92654 0.71841,-4.65436 0.39794,-0.0767 0.77514,-0.2366 1.1069,-0.4695 0.36322,0.12964 0.77337,0.4585 1.22634,0.96529 -0.21581,-0.49749 -0.58155,-1.01294 -0.65363,-1.49139 0.23925,-0.2914 0.41855,-0.62695 0.52815,-0.98755 0.67291,-0.41515 2.07587,-0.73467 4.76972,-0.88229 -2.73758,-0.0627 -4.14213,-0.38121 -4.78994,-0.8459 -0.10469,-0.32466 -0.26645,-0.62834 -0.47758,-0.89646 0.008,-0.26117 0.0983,-0.53771 0.22451,-0.82159 -0.21846,0.19653 -0.41356,0.33902 -0.59293,0.4391 -0.40343,-0.34885 -0.89601,-0.57876 -1.42261,-0.66376 -0.4258,-1.15812 -0.45921,-3.29135 -0.68198,-4.95181 z m 34.10429,0.44118 c -0.55325,3.56757 -0.45914,8.65461 -1.76866,11.32828 -0.99073,0.37568 -1.87253,0.99182 -2.56596,1.79296 -0.84687,-0.0189 -1.88734,-0.38838 -3.18522,-1.2243 0.38634,0.9682 1.65357,2.05924 2.08232,3.03341 -0.19048,0.47882 -0.32239,0.97893 -0.39258,1.48939 -1.06873,0.7607 -3.93833,1.26776 -10.3428,1.27691 5.81989,-0.008 8.93406,0.38888 10.44599,1.04216 0.18633,0.80602 0.52705,1.56816 1.00372,2.24421 -0.35754,0.75639 -1.0758,1.58505 -1.66745,2.41624 0.79608,-0.35603 1.63208,-1.11885 2.43239,-1.51974 0.73806,0.71966 1.63925,1.25007 2.62669,1.54605 0.64452,1.7252 1.15128,4.90815 1.4307,10.49254 0.0695,-5.39394 0.63004,-8.72709 1.59869,-10.34484 0.88328,-0.17121 1.7204,-0.52705 2.45669,-1.04417 0.80727,0.288 1.72097,1.02055 2.72787,2.14707 -0.47981,-1.10585 -1.29475,-2.2552 -1.455,-3.31875 0.53189,-0.6471 0.93134,-1.39242 1.17569,-2.19364 1.49571,-0.92273 4.61407,-1.63067 10.60185,-1.95888 -5.0477,-0.11603 -8.03507,-0.62876 -9.7357,-1.38822 -0.0975,-1.12236 -0.72789,-2.17594 -1.8921,-3.07792 0.0862,-0.40158 0.23357,-0.81525 0.42093,-1.23644 -0.37973,0.34205 -0.72295,0.5921 -1.04825,0.79933 -1.29649,-0.85473 -2.42717,-1.30438 -3.43615,-1.29917 -0.94647,-2.57423 -1.01858,-7.31163 -1.51366,-11.00248 z m 86.95551,28.32881 c -0.55325,3.5676 -0.45914,8.65464 -1.76866,11.32831 -0.99073,0.37569 -1.87253,0.99182 -2.56599,1.79297 -0.84684,-0.0189 -1.88731,-0.39039 -3.18519,-1.22634 0.38638,0.9682 1.6535,2.06127 2.08232,3.03544 -0.19048,0.47883 -0.32239,0.97893 -0.39258,1.48939 -1.06873,0.76071 -3.93833,1.26773 -10.34276,1.27691 5.81985,-0.008 8.93403,0.38888 10.44598,1.04217 0.18633,0.80598 0.52702,1.56816 1.00369,2.24424 -0.35754,0.75636 -1.0758,1.58502 -1.66745,2.41621 0.79608,-0.35603 1.63208,-1.11889 2.43243,-1.51975 0.73802,0.71966 1.63921,1.25008 2.62665,1.54605 0.64452,1.7252 1.15128,4.9081202 1.4307,10.4925502 0.0695,-5.39394 0.63004,-8.7271002 1.59869,-10.3448402 0.88328,-0.17122 1.7204,-0.52706 2.45669,-1.04417 0.80727,0.288 1.721,1.02054 2.72787,2.14707 -0.47981,-1.10585 -1.29475,-2.2552 -1.455,-3.31876 0.53189,-0.64709 0.93138,-1.39241 1.17573,-2.19363 1.49567,-0.92273 4.61403,-1.63067 10.60181,-1.95889 -6.08502,-0.13984 -9.20641,-0.84907 -10.64633,-1.88197 -0.23282,-0.72223 -0.59271,-1.39721 -1.06243,-1.99328 0.0151,-0.58027 0.22111,-1.19626 0.50189,-1.82732 -0.48545,0.43702 -0.9227,0.75473 -1.32144,0.97742 -0.89676,-0.77646 -1.99195,-1.28795 -3.16292,-1.47726 -0.94651,-2.57423 -1.01862,-7.31163 -1.5137,-11.00252 z m -241.20293,7.92659 c 0.0888,-0.008 0.16498,0.008 0.22666,0.0465 0.4933,0.30501 0.82497,4.85623 0.73659,10.11414 -0.13746,8.17404 0.18773,10.2355002 2.24826,14.2221002 1.32541,2.56433 3.33494,5.67094 4.46414,6.90461 0.87332,0.95418 1.36807,1.87045 1.49951,2.79261 0.011,0.076 0.008,0.15269 0.0144,0.22866 0.0299,0.51579 -0.0416,1.04988 -0.22666,1.63306 -0.62614,1.97283 -0.50198,2.20395 0.67994,1.26477 0.19095,-0.15155 0.4115,-0.3084 0.64351,-0.4614 0.0594,-0.0378 0.0846,-0.0453 0.14774,-0.085 1.83521,-1.1461 2.47205,-0.9939 4.75351,1.14943 3.09979,2.9121198 3.38662,6.2910798 0.73863,8.6874798 -2.91224,2.63554 -5.24858,2.07764 -9.46049,-2.26242 -1.80374,-1.85865 -2.81293,-3.17521 -3.46647,-4.84054 -0.46492,-1.4424498 -0.88582,-3.3947598 -1.11097,-5.3505098 -0.19034,-1.65346 -0.6013,-3.96755 -1.10896,-6.36633005 -0.5115,-2.41688995 -1.12054,-4.91884995 -1.70592,-6.92082995 -1.16639,-3.9889802 -2.61555,-8.9603602 -3.2196,-11.0470002 -0.95501,-3.29902 -0.79884,-4.21291 1.18989,-7.00582 1.10066,-1.54575 2.33462,-2.65478 2.95653,-2.70357 z m 198.55689,7.59064 c -0.24944,1.60841 -0.20711,3.90223 -0.79732,5.10767 -0.44678,0.16895 -0.84457,0.44648 -1.15752,0.80742 -0.38177,-0.008 -0.84959,-0.17575 -1.43474,-0.55245 0.17424,0.4365 0.74566,0.92878 0.93898,1.36796 -0.0854,0.21619 -0.14475,0.44164 -0.17612,0.67185 -0.48185,0.3428 -1.77713,0.57259 -4.66449,0.57675 2.62381,-0.004 4.02734,0.17499 4.70897,0.46945 0.0265,0.10696 0.0574,0.21241 0.0952,0.31559 0.0302,0.0809 0.0612,0.16063 0.0971,0.23887 0.0616,0.16403 0.14098,0.32428 0.2468,0.48162 -0.16441,0.33487 -0.4758,0.69808 -0.73659,1.06443 0.34507,-0.15421 0.70424,-0.47433 1.0523,-0.65968 0.34885,0.34658 0.69221,0.54183 1.04216,0.60707 0.0612,0.0227 0.12321,0.0454 0.18633,0.0646 0.29065,0.7777802 0.51757,2.2115402 0.64354,4.7292302 0.0302,-2.43181 0.28384,-3.93311 0.72041,-4.6624502 0.39874,-0.0771 0.77666,-0.23811 1.10895,-0.47153 0.36397,0.13001 0.77439,0.46144 1.22834,0.9693302 -0.21618,-0.4985502 -0.5834,-1.0179702 -0.65567,-1.4974802 0.24,-0.29178 0.42006,-0.62812 0.53019,-0.98955 0.67435,-0.41602 2.08029,-0.73436 4.77985,-0.88233 -2.7434,-0.0631 -4.14886,-0.38223 -4.79806,-0.8479 -0.10507,-0.32542 -0.26759,-0.62986 -0.47959,-0.8985 0.008,-0.26155 0.0979,-0.53908 0.22451,-0.8236 -0.21884,0.19691 -0.41518,0.33865 -0.59497,0.43914 -0.40396,-0.3496 -0.89719,-0.58027 -1.42462,-0.6658 -0.42674,-1.16057 -0.4608,-3.29592 -0.68398,-4.95993 z M 169.2074,-4.8885408 c 0.0921,0.003 0.19147,0.0567 0.29949,0.17197 1.17092,1.25064 4.14843,13.1593 3.54946,14.19579 -0.66926,1.1580498 -2.01013,0.9416298 -3.20948,-0.51809 -1.62674,-1.97983 -2.02079,-13.88992 -0.63948,-13.84974 z M 329.32337,28.898093 c -0.6254,4.032745 -0.51704,9.783205 -1.99733,12.805534 -1.12028,0.424175 -2.11755,1.120249 -2.90191,2.02567 -0.95724,-0.02268 -2.1329,-0.439217 -3.60003,-1.384172 0.43672,1.094435 1.87082,2.328863 2.35551,3.430063 -0.21581,0.541189 -0.3651,1.106529 -0.44519,1.683662 -1.20808,0.85984 -4.45106,1.432475 -11.69054,1.44283 6.57871,-0.01134 10.09679,0.439256 11.80585,1.177774 0.21128,0.911544 0.59743,1.773387 1.1373,2.537606 -0.40403,0.85504 -1.2172,1.790357 -1.88602,2.729907 0.8999,-0.402292 1.84342,-1.262926 2.74809,-1.716052 0.83429,0.812974 1.85279,1.412141 2.96866,1.746402 0.72858,1.950155 1.30102,5.547953 1.61688,11.860504 0.0786,-6.097231 0.71417,-9.863861 1.80914,-11.692542 0.99892,-0.193134 1.94573,-0.595237 2.77847,-1.179777 0.91249,0.325795 1.94381,1.152942 3.08197,2.426337 -0.54236,-1.250038 -1.46407,-2.549587 -1.64522,-3.751814 0.60136,-0.731223 1.05308,-1.573488 1.32956,-2.478947 1.69069,-1.043034 5.21539,-1.844896 11.98394,-2.215894 -6.87846,-0.157984 -10.40486,-0.959241 -12.03251,-2.126848 -0.26381,-0.816186 -0.67083,-1.578855 -1.20204,-2.25229 0.0189,-0.655973 0.24907,-1.352802 0.56659,-2.066149 -0.54871,0.493983 -1.04266,0.853227 -1.49344,1.104942 -1.01385,-0.877641 -2.25199,-1.455719 -3.57576,-1.669526 -1.06991,-2.909888 -1.1523,-8.265162 -1.71197,-12.43722 z m -57.32349,11.132002 c -0.3069,1.979711 -0.25474,4.801688 -0.98147,6.285375 -0.55011,0.208629 -1.0397,0.550713 -1.42461,0.995638 -0.46995,-0.01134 -1.04844,-0.216188 -1.76866,-0.679935 0.2143,0.537258 0.91959,1.143077 1.15751,1.683662 -0.10582,0.265322 -0.17915,0.542625 -0.21845,0.825635 -0.59305,0.422135 -2.18506,0.70318 -5.73901,0.708282 3.22956,-0.0038 4.95668,0.216188 5.79566,0.578757 0.10356,0.447798 0.29329,0.871179 0.55854,1.246561 -0.19843,0.419715 -0.59849,0.878398 -0.92682,1.33965 0.44175,-0.197291 0.90565,-0.621428 1.34975,-0.843891 0.40939,0.399344 0.90927,0.693731 1.457,0.858064 0.35754,0.957352 0.64025,2.725108 0.79532,5.82401 0.0385,-2.993227 0.34885,-4.843339 0.88634,-5.74105 0.49032,-0.09486 0.95512,-0.291778 1.36395,-0.578757 0.44795,0.159874 0.95493,0.564773 1.51366,1.189905 -0.26608,-0.61368 -0.71849,-1.251322 -0.80742,-1.841532 0.29556,-0.358676 0.51753,-0.771891 0.65363,-1.216211 0.82998,-0.512011 2.55994,-0.906592 5.88271,-1.08869 -3.37674,-0.07748 -5.10999,-0.471041 -5.90901,-1.044205 -0.12926,-0.400326 -0.32882,-0.774423 -0.58889,-1.104904 0.008,-0.322015 0.12132,-0.663645 0.27742,-1.013855 -0.26948,0.242645 -0.5113,0.41877 -0.73255,0.54236 -0.49746,-0.430676 -1.10494,-0.714442 -1.75449,-0.819588 -0.52524,-1.428506 -0.56508,-4.057161 -0.83981,-6.105281 z"
       id="path4491-1"
       inkscape:export-xdpi="96"
       inkscape:export-ydpi="96" />
  </g>
</svg>
